<svg xmlns="http://www.w3.org/2000/svg" width="200" height="200" viewBox="0 0 200 200">
  <!-- Основной контур бриллианта (прямые линии) -->
  <polygon fill="#ad5a08" points="100,3 54,45 54,74 54,103 61,110 67,116 67,118 61,122 53,131 26,156 2,181 2,185 15,198 45,173 69,147 76,140 78,139 80,136 80,133 82,133 88,137 93,142 75,122 55,103 55,74 55,45 75,25 100,4"/>
  
  <polygon fill="#ad5a08" points="100,3 146,45 146,74 146,103 139,110 133,116 133,118 139,122 147,131 174,156 198,181 198,185 185,198 155,173 131,147 124,140 122,139 120,136 120,133 118,133 112,137 107,142 125,122 145,103 145,74 145,45 125,25 100,4"/>

  <!-- Центральные грани (прямые линии) -->
  <polygon fill="#22a3a4" points="100,4 75,25 55,45 55,74 55,103 76,123 97,145 126,145 155,145 176,123 197,103 197,74 197,45 177,25 152,4 125,4"/>
  
  <!-- Верхние грани -->
  <polygon fill="#22a3a4" points="100,4 75,25 61,44 65,47 76,51 84,54 106,32 99,15 98,11 79,27"/>
  
  <polygon fill="#22a3a4" points="100,4 125,25 139,44 135,47 124,51 116,54 94,32 101,15 102,11 121,27"/>
  
  <!-- Боковые грани -->
  <polygon fill="#22a3a4" points="61,44 65,47 76,51 84,54 89,56 92,58 102,62 109,65 116,68 112,66 114,50 112,46 108,37 98,47"/>
  
  <polygon fill="#22a3a4" points="139,44 135,47 124,51 116,54 111,56 108,58 98,62 91,65 84,68 88,66 86,50 88,46 92,37 102,47"/>
  
  <!-- Нижние грани -->
  <polygon fill="#22a3a4" points="61,122 53,131 26,156 2,181 2,185 15,198 45,173 69,147 76,140 78,139 80,136"/>
  
  <polygon fill="#22a3a4" points="139,122 147,131 174,156 198,181 198,185 185,198 155,173 131,147 124,140 122,139 120,136"/>
</svg>