<?xml version="1.0" encoding="UTF-8"?>
<!DOCTYPE svg PUBLIC "-//W3C//DTD SVG 1.1//EN" "http://www.w3.org/Graphics/SVG/1.1/DTD/svg11.dtd">
<svg xmlns="http://www.w3.org/2000/svg" version="1.1" width="200px" height="200px" style="shape-rendering:geometricPrecision; text-rendering:geometricPrecision; image-rendering:optimizeQuality; fill-rule:evenodd; clip-rule:evenodd" xmlns:xlink="http://www.w3.org/1999/xlink">
<g><path style="opacity:1" fill="#c5c5c5" d="M 113.5,112.5 C 112.833,112.5 112.5,112.833 112.5,113.5C 111.094,113.973 110.427,114.973 110.5,116.5C 109.094,116.973 108.427,117.973 108.5,119.5C 105.793,122.247 104.127,125.58 103.5,129.5C 101.926,131.102 101.259,133.102 101.5,135.5C 100.833,135.5 100.5,135.833 100.5,136.5C 99.8333,136.5 99.1667,136.5 98.5,136.5C 98.0652,133.843 97.0652,131.509 95.5,129.5C 94.8734,125.58 93.2067,122.247 90.5,119.5C 90.1551,116.802 88.8218,114.802 86.5,113.5C 85.6267,111.114 84.1267,109.114 82,107.5C 82.0429,93.4135 87.8763,82.4135 99.5,74.5C 111.124,82.4135 116.957,93.4135 117,107.5C 115.198,108.789 114.031,110.456 113.5,112.5 Z"/></g>
<g><path style="opacity:1" fill="#b3b3b3" d="M 86.5,113.5 C 87.3403,115.853 88.6736,117.853 90.5,119.5C 91.6589,123.151 93.3256,126.485 95.5,129.5C 96.9747,134.4 97.9747,139.4 98.5,144.5C 98.1667,144.5 97.8333,144.5 97.5,144.5C 96.6493,142.118 95.316,140.118 93.5,138.5C 93.573,136.973 92.9063,135.973 91.5,135.5C 89.5,131.5 86.5,128.5 82.5,126.5C 82.5,125.833 82.1667,125.5 81.5,125.5C 81.0269,124.094 80.0269,123.427 78.5,123.5C 78.1583,122.662 77.4916,122.328 76.5,122.5C 75.713,120.896 74.3797,120.229 72.5,120.5C 67.266,117.77 61.5993,116.103 55.5,115.5C 52.4037,108.115 50.4037,100.448 49.5,92.5C 50.723,91.3861 52.0563,91.2195 53.5,92C 66.5104,96.1662 77.5104,103.333 86.5,113.5 Z"/></g>
<g><path style="opacity:1" fill="#b2b2b2" d="M 126.5,120.5 C 124.62,120.229 123.287,120.896 122.5,122.5C 121.508,122.328 120.842,122.662 120.5,123.5C 118.973,123.427 117.973,124.094 117.5,125.5C 116.833,125.5 116.5,125.833 116.5,126.5C 112.833,128.167 110.167,130.833 108.5,134.5C 107.833,134.5 107.5,134.833 107.5,135.5C 106.094,135.973 105.427,136.973 105.5,138.5C 103.412,140.336 102.079,142.669 101.5,145.5C 100.833,145.5 100.5,145.167 100.5,144.5C 100.704,141.482 101.037,138.482 101.5,135.5C 102.738,133.786 103.405,131.786 103.5,129.5C 105.674,126.485 107.341,123.151 108.5,119.5C 109.906,119.027 110.573,118.027 110.5,116.5C 111.906,116.027 112.573,115.027 112.5,113.5C 113.167,113.5 113.5,113.167 113.5,112.5C 123.059,101.385 135.059,94.3848 149.5,91.5C 148.752,99.7399 146.918,107.74 144,115.5C 139.867,116.291 135.7,117.124 131.5,118C 129.509,118.374 127.842,119.207 126.5,120.5 Z"/></g>
<g><path style="opacity:0.776" fill="#505050" d="M 33.5,117.5 C 31.8212,117.285 30.8212,117.952 30.5,119.5C 28.9122,118.365 28.5788,117.031 29.5,115.5C 31.0255,115.994 32.3588,116.661 33.5,117.5 Z"/></g>
<g><path style="opacity:1" fill="#acacac" d="M 33.5,117.5 C 43.1163,117.69 52.783,117.857 62.5,118C 65.824,118.943 69.1574,119.776 72.5,120.5C 73.5137,121.674 74.847,122.34 76.5,122.5C 76.8417,123.338 77.5084,123.672 78.5,123.5C 78.9731,124.906 79.9731,125.573 81.5,125.5C 82.1667,125.5 82.5,125.833 82.5,126.5C 85.1667,129.833 88.1667,132.833 91.5,135.5C 91.427,137.027 92.0937,138.027 93.5,138.5C 93.8333,139.833 94.1667,141.167 94.5,142.5C 94.5,143.167 94.1667,143.5 93.5,143.5C 91.7541,141.748 89.7541,140.415 87.5,139.5C 84.2321,136.293 80.2321,134.627 75.5,134.5C 71.7665,133.023 67.7665,132.189 63.5,132C 55.5,131.667 47.5,131.333 39.5,131C 35.5216,127.864 32.5216,124.031 30.5,119.5C 30.8212,117.952 31.8212,117.285 33.5,117.5 Z"/></g>
<g><path style="opacity:1" fill="#ababab" d="M 166.5,117.5 C 167.833,117.5 168.5,118.167 168.5,119.5C 166.503,124.012 163.503,127.845 159.5,131C 144.891,130.537 130.558,132.204 116.5,136C 114.416,136.697 112.749,137.864 111.5,139.5C 109.589,140.075 107.922,141.075 106.5,142.5C 105.662,142.158 105.328,141.492 105.5,140.5C 105.5,139.833 105.5,139.167 105.5,138.5C 106.906,138.027 107.573,137.027 107.5,135.5C 108.167,135.5 108.5,135.167 108.5,134.5C 111.5,132.167 114.167,129.5 116.5,126.5C 117.167,126.5 117.5,126.167 117.5,125.5C 119.027,125.573 120.027,124.906 120.5,123.5C 121.492,123.672 122.158,123.338 122.5,122.5C 124.153,122.34 125.486,121.674 126.5,120.5C 129.843,119.776 133.176,118.943 136.5,118C 146.548,117.892 156.548,117.725 166.5,117.5 Z"/></g>
<g><path style="opacity:0.714" fill="#656565" d="M 168.5,119.5 C 168.5,118.167 167.833,117.5 166.5,117.5C 167.635,115.912 168.969,115.579 170.5,116.5C 170.058,117.739 169.391,118.739 168.5,119.5 Z"/></g>
<g><path style="opacity:0.71" fill="#424242" d="M 16.5,131.5 C 15.1667,131.5 14.5,132.167 14.5,133.5C 11.4974,128.144 12.164,127.477 16.5,131.5 Z"/></g>
<g><path style="opacity:1" fill="#8b8b8b" d="M 16.5,131.5 C 27.3926,133.637 38.3926,133.97 49.5,132.5C 58.2009,132.8 66.8676,133.467 75.5,134.5C 79.4237,136.147 83.4237,137.814 87.5,139.5C 89.8333,142.5 92.5,145.167 95.5,147.5C 95.2172,148.289 94.7172,148.956 94,149.5C 80.52,144.271 66.52,141.604 52,141.5C 40.708,141.891 29.5413,143.224 18.5,145.5C 17.1738,141.51 15.8405,137.51 14.5,133.5C 14.5,132.167 15.1667,131.5 16.5,131.5 Z"/></g>
<g><path style="opacity:1" fill="#8c8c8c" d="M 182.5,131.5 C 183.833,131.5 184.5,132.167 184.5,133.5C 183.16,137.51 181.826,141.51 180.5,145.5C 163.323,141.484 145.989,140.65 128.5,143C 123.89,143.614 119.557,144.78 115.5,146.5C 111.793,146.792 108.293,147.792 105,149.5C 104.283,148.956 103.783,148.289 103.5,147.5C 106.5,145.167 109.167,142.5 111.5,139.5C 123.607,134.41 136.273,132.077 149.5,132.5C 160.607,133.97 171.607,133.637 182.5,131.5 Z"/></g>
<g><path style="opacity:0.518" fill="#434343" d="M 184.5,133.5 C 184.5,132.167 183.833,131.5 182.5,131.5C 186.747,127.516 187.414,128.183 184.5,133.5 Z"/></g>
<g><path style="opacity:0.059" fill="#222222" d="M 98.5,136.5 C 99.1667,136.5 99.8333,136.5 100.5,136.5C 99.8333,139.167 99.1667,139.167 98.5,136.5 Z"/></g>
<g><path style="opacity:1" fill="#8e8e8e" d="M 115.5,146.5 C 144.436,139.66 172.436,142.327 199.5,154.5C 199.5,155.167 199.5,155.833 199.5,156.5C 196.939,158.371 194.439,160.371 192,162.5C 170.02,152.649 147.187,150.149 123.5,155C 115.398,157.22 107.398,159.72 99.5,162.5C 72.7183,151.094 45.385,149.594 17.5,158C 13.9009,159.309 10.4009,160.809 7,162.5C 4.91351,159.906 2.41351,157.906 -0.5,156.5C -0.5,155.833 -0.5,155.167 -0.5,154.5C 30.4444,140.337 61.9444,139.004 94,150.5C 97.6667,149.167 101.333,149.167 105,150.5C 108.716,149.433 112.216,148.099 115.5,146.5 Z"/></g>
<g><path style="opacity:0.922" fill="#535353" d="M 94.5,142.5 C 95.6006,143.848 96.6006,145.348 97.5,147C 96.9056,147.464 96.2389,147.631 95.5,147.5C 95.2671,145.938 94.6005,144.605 93.5,143.5C 94.1667,143.5 94.5,143.167 94.5,142.5 Z"/></g>
<g><path style="opacity:0.878" fill="#5e5e5e" d="M 105.5,140.5 C 105.328,141.492 105.662,142.158 106.5,142.5C 105.075,143.922 104.075,145.589 103.5,147.5C 102.508,147.672 101.842,147.338 101.5,146.5C 102.833,144.5 104.167,142.5 105.5,140.5 Z"/></g>
<g><path style="opacity:0.018" fill="#0a0a0a" d="M 97.5,144.5 C 97.8333,144.5 98.1667,144.5 98.5,144.5C 99.1667,144.5 99.8333,144.5 100.5,144.5C 100.5,145.167 100.833,145.5 101.5,145.5C 101.5,145.833 101.5,146.167 101.5,146.5C 99.6203,146.771 98.287,146.104 97.5,144.5 Z"/></g>
</svg>
