<?xml version="1.0" standalone="no"?>
<!DOCTYPE svg PUBLIC "-//W3C//DTD SVG 20010904//EN"
 "http://www.w3.org/TR/2001/REC-SVG-20010904/DTD/svg10.dtd">
<svg version="1.0" xmlns="http://www.w3.org/2000/svg"
 width="200.000000pt" height="200.000000pt" viewBox="0 0 200.000000 200.000000"
 preserveAspectRatio="xMidYMid meet">

<g transform="translate(0.000000,200.000000) scale(0.100000,-0.100000)"
fill="#000000" stroke="none">
<path d="M932 1225 c-34 -37 -69 -87 -78 -111 -9 -24 -20 -44 -24 -44 -4 0
-13 -29 -20 -65 l-12 -65 46 -51 c47 -52 128 -202 141 -259 5 -21 10 -29 17
-22 6 6 6 16 -1 28 -5 11 -25 53 -43 94 -18 41 -55 104 -82 140 -46 61 -48 66
-43 112 4 27 20 75 37 106 36 68 110 152 133 152 21 0 98 -93 130 -156 36 -72
49 -147 28 -171 -9 -10 -5 -8 8 4 23 21 24 23 11 85 -6 35 -15 65 -19 68 -4 3
-19 30 -34 60 -14 30 -50 79 -80 108 l-54 53 -61 -66z"/>
<path d="M480 1064 c0 -20 9 -77 21 -126 23 -99 24 -100 117 -113 28 -4 52
-11 52 -16 0 -5 3 -8 8 -7 4 1 32 -11 62 -26 63 -33 168 -130 196 -181 10 -19
22 -35 27 -35 4 0 5 -4 2 -10 -3 -5 -2 -10 4 -10 5 0 12 -8 14 -17 4 -17 5
-17 6 0 2 33 -51 121 -108 177 -67 68 -162 117 -255 133 l-66 11 -15 49 c-19
66 -38 168 -31 175 3 3 31 -5 63 -16 75 -28 79 -22 6 11 -101 44 -103 44 -103
1z"/>
<path d="M1438 1076 c-56 -23 -148 -73 -148 -81 0 -2 33 11 73 30 39 19 85 37
101 41 l28 7 -7 -54 c-4 -30 -16 -81 -26 -114 -18 -60 -18 -72 0 -61 23 15 65
256 44 256 -5 0 -33 -11 -65 -24z"/>
<path d="M1259 973 c-13 -16 -12 -17 4 -4 9 7 17 15 17 17 0 8 -8 3 -21 -13z"/>
<path d="M1190 915 c-24 -25 -42 -45 -39 -45 3 0 25 20 49 45 24 25 42 45 39
45 -3 0 -25 -20 -49 -45z"/>
<path d="M262 811 c5 -14 28 -53 52 -86 l43 -60 169 -6 c239 -9 317 -32 394
-115 22 -24 42 -44 44 -44 6 0 -30 68 -45 86 -20 25 -103 63 -171 79 -35 8
-127 18 -206 21 l-142 7 -36 39 c-19 22 -40 49 -45 62 -6 12 -23 27 -39 33
-27 10 -28 10 -18 -16z"/>
<path d="M1393 833 c9 -2 23 -2 30 0 6 3 -1 5 -18 5 -16 0 -22 -2 -12 -5z"/>
<path d="M1702 811 c-15 -16 -44 -49 -64 -73 l-37 -45 -143 -7 c-203 -9 -297
-34 -376 -101 -30 -25 -68 -85 -53 -85 4 0 27 20 51 45 82 84 194 115 416 115
l133 0 41 56 c40 53 76 124 64 124 -3 0 -18 -13 -32 -29z"/>
<path d="M1338 823 c6 -2 18 -2 25 0 6 3 1 5 -13 5 -14 0 -19 -2 -12 -5z"/>
<path d="M463 813 c9 -2 25 -2 35 0 9 3 1 5 -18 5 -19 0 -27 -2 -17 -5z"/>
<path d="M1239 788 c-72 -35 -177 -134 -199 -188 -12 -29 -15 -31 -22 -14 -6
14 -7 12 -3 -8 3 -16 1 -28 -5 -28 -5 0 -10 -10 -10 -22 0 -17 11 -4 39 42 48
80 139 168 212 206 29 15 57 27 62 26 4 -1 7 3 7 8 0 16 -12 12 -81 -22z"/>
<path d="M1503 813 c9 -2 23 -2 30 0 6 3 -1 5 -18 5 -16 0 -22 -2 -12 -5z"/>
<path d="M1066 783 c-6 -14 -5 -15 5 -6 7 7 10 15 7 18 -3 3 -9 -2 -12 -12z"/>
<path d="M1036 725 c-9 -26 -7 -32 5 -12 6 10 9 21 6 23 -2 3 -7 -2 -11 -11z"/>
<path d="M94 648 c8 -18 23 -55 34 -83 22 -58 9 -56 187 -25 197 34 380 22
573 -39 61 -19 63 -19 47 -1 -32 35 -181 72 -345 85 -91 7 -252 -7 -336 -29
l-51 -13 -22 51 c-16 39 -29 55 -54 66 -17 7 -36 15 -40 18 -4 2 -1 -11 7 -30z"/>
<path d="M1867 662 c-16 -10 -36 -38 -48 -68 l-22 -51 -51 13 c-100 27 -258
37 -375 25 -161 -17 -308 -57 -318 -88 -3 -7 23 -3 69 11 132 41 206 51 368
50 121 0 176 -5 250 -22 51 -12 97 -19 101 -14 12 11 68 162 61 161 -4 0 -19
-8 -35 -17z"/>
<path d="M425 474 c-80 -9 -202 -37 -276 -64 l-75 -27 -28 23 c-38 34 -46 30
-46 -21 0 -58 13 -63 81 -31 88 41 211 67 354 73 200 9 282 -6 499 -86 57 -22
61 -22 110 -6 28 9 70 25 93 36 91 41 170 53 358 53 200 0 308 -18 415 -70 66
-32 84 -25 88 35 4 47 -2 50 -42 18 l-29 -23 -76 27 c-250 88 -532 85 -775 -9
l-76 -30 -76 30 c-141 55 -362 86 -499 72z"/>
</g>
</svg>
