<?xml version="1.0" encoding="UTF-8"?>
<!DOCTYPE svg PUBLIC "-//W3C//DTD SVG 1.1//EN" "http://www.w3.org/Graphics/SVG/1.1/DTD/svg11.dtd">
<svg xmlns="http://www.w3.org/2000/svg" version="1.1" width="200px" height="200px" style="shape-rendering:geometricPrecision; text-rendering:geometricPrecision; image-rendering:optimizeQuality; fill-rule:evenodd; clip-rule:evenodd" xmlns:xlink="http://www.w3.org/1999/xlink">
<g><path style="opacity:0.004" fill="#000000" d="M 156.5,0.5 C 157.833,1.16667 157.833,1.16667 156.5,0.5 Z"/></g>
<g><path style="opacity:0.919" fill="#aeaeae" d="M 156.5,1.5 C 156.833,2.5 157.5,3.16667 158.5,3.5C 162.5,6.83333 166.167,10.5 169.5,14.5C 169.833,15.5 170.5,16.1667 171.5,16.5C 176.58,20.9119 180.913,25.2452 184.5,29.5C 186.647,31.4695 188.98,33.3029 191.5,35C 191.167,35.3333 190.833,35.6667 190.5,36C 193.167,38 195.5,40.3333 197.5,43C 197.61,63.7246 197.444,84.5579 197,105.5C 183.86,118.64 170.694,131.806 157.5,145C 156.167,145.333 154.833,145.667 153.5,146C 133.462,146.925 113.462,146.592 93.5,145C 89.2964,140.964 85.2964,136.798 81.5,132.5C 76.8333,127.167 71.8333,122.167 66.5,117.5C 62.1869,113.522 57.8535,109.522 53.5,105.5C 52.3336,85.1749 52.1669,64.8415 53,44.5C 54.6665,42.0043 56.4998,39.671 58.5,37.5C 59.5,37.1667 60.1667,36.5 60.5,35.5C 62.8333,33.8333 64.8333,31.8333 66.5,29.5C 68.5,28.1667 70.1667,26.5 71.5,24.5C 72.2679,23.7375 72.7679,22.7375 73,21.5C 73.3333,21.8333 73.6667,22.1667 74,22.5C 74.5,20.6667 75.6667,19.5 77.5,19C 77.1667,18.6667 76.8333,18.3333 76.5,18C 77.7375,17.7679 78.7375,17.2679 79.5,16.5C 80.5,16.1667 81.1667,15.5 81.5,14.5C 82.8333,13.8333 83.8333,12.8333 84.5,11.5C 86.8333,9.83333 88.8333,7.83333 90.5,5.5C 91.5,5.16667 92.1667,4.5 92.5,3.5C 93.2891,3.21719 93.9558,2.71719 94.5,2C 115.164,1.50004 135.831,1.33338 156.5,1.5 Z M 103.5,10.5 C 118.005,9.17394 132.672,9.17394 147.5,10.5C 144.962,16.4083 142.295,22.2416 139.5,28C 134.914,28.1971 130.414,28.6971 126,29.5C 121.667,28.1667 117.333,28.1667 113,29.5C 109.716,23.0948 106.549,16.7615 103.5,10.5 Z M 94.5,13.5 C 95.4959,13.4142 96.3292,13.7476 97,14.5C 98.963,20.0511 101.13,25.5511 103.5,31C 97.258,37.7863 90.5913,44.1197 83.5,50C 83.8333,50.3333 84.1667,50.6667 84.5,51C 77.8119,49.5998 71.4786,47.0998 65.5,43.5C 75.5241,33.8098 85.1908,23.8098 94.5,13.5 Z M 157.5,15.5 C 161.5,20.1667 165.833,24.5 170.5,28.5C 171.268,29.2625 171.768,30.2625 172,31.5C 172.333,31.1667 172.667,30.8333 173,30.5C 173.652,32.7231 175.152,33.8898 177.5,34C 176.72,35.073 176.887,36.2396 178,37.5C 178.333,37.1667 178.667,36.8333 179,36.5C 181.404,38.9884 183.238,41.3217 184.5,43.5C 179.255,46.9225 173.588,49.5891 167.5,51.5C 162.627,45.4601 156.96,40.2935 150.5,36C 149.5,34.3333 148.5,32.6667 147.5,31C 150.072,26.0209 152.238,20.8543 154,15.5C 155.292,14.2089 156.458,14.2089 157.5,15.5 Z M 114.5,36.5 C 121.863,36.1694 129.197,36.5027 136.5,37.5C 132.87,46.2837 129.037,54.9504 125,63.5C 121.199,54.5936 117.699,45.5936 114.5,36.5 Z M 144.5,41.5 C 145.5,41.8333 146.167,42.5 146.5,43.5C 148.5,45.5 150.5,47.5 152.5,49.5C 153.167,50.5 153.833,51.5 154.5,52.5C 155.5,53.1667 156.5,53.8333 157.5,54.5C 156.167,54.8333 156.167,55.1667 157.5,55.5C 149.505,59.2341 141.339,62.9007 133,66.5C 136.167,57.8618 139.667,49.1951 143.5,40.5C 144.107,40.6236 144.44,40.9569 144.5,41.5 Z M 106.5,41.5 C 106.833,42.8333 107.167,42.8333 107.5,41.5C 111.731,49.3503 114.898,57.6837 117,66.5C 108.936,62.5526 100.769,58.7193 92.5,55C 97.0089,50.3242 101.676,45.8242 106.5,41.5 Z M 61.5,51.5 C 67.3529,54.3461 73.3529,57.0128 79.5,59.5C 80.8333,69.1667 80.8333,78.8333 79.5,88.5C 73.6791,90.5809 68.0124,92.9143 62.5,95.5C 61.5007,80.8485 61.1674,66.1818 61.5,51.5 Z M 188.5,51.5 C 189.496,65.9905 189.829,80.6572 189.5,95.5C 183.545,93.1947 177.545,90.8614 171.5,88.5C 170.167,78.8333 170.167,69.1667 171.5,59.5C 177.717,57.5535 183.383,54.8869 188.5,51.5 Z M 88.5,62.5 C 97.2815,65.7647 105.948,69.4314 114.5,73.5C 105.987,76.9269 97.6537,80.5935 89.5,84.5C 88.5027,77.1968 88.1694,69.8635 88.5,62.5 Z M 159.5,62.5 C 160.5,62.5 161.5,62.5 162.5,62.5C 162.5,69.8333 162.5,77.1667 162.5,84.5C 153.301,81.4308 144.301,77.7641 135.5,73.5C 143.627,69.8055 151.627,66.1388 159.5,62.5 Z M 94.5,94.5 C 93.5,94.1667 92.8333,93.5 92.5,92.5C 93.8333,92.1667 93.8333,91.8333 92.5,91.5C 100.866,87.3208 109.533,83.8208 118.5,81C 115.038,90.0477 111.205,98.881 107,107.5C 102.63,103.298 98.4632,98.9645 94.5,94.5 Z M 132.5,80.5 C 141.381,84.0514 150.048,88.0514 158.5,92.5C 153.848,97.6519 149.015,102.652 144,107.5C 139.671,98.6692 135.837,89.6692 132.5,80.5 Z M 124.5,84.5 C 129.262,93.1015 133.262,102.101 136.5,111.5C 129.167,111.5 121.833,111.5 114.5,111.5C 117.833,102.5 121.167,93.5 124.5,84.5 Z M 82.5,95.5 C 89.7853,102.119 96.7853,109.119 103.5,116.5C 100.748,122.345 98.2476,128.345 96,134.5C 86.5614,124.394 76.3947,114.228 65.5,104C 71.4897,101.627 77.1564,98.7936 82.5,95.5 Z M 148.5,115.5 C 150.167,113.167 152.167,111.167 154.5,109.5C 154.833,108.5 155.5,107.833 156.5,107.5C 160.13,103.369 163.963,99.369 168,95.5C 173.643,98.7149 179.476,101.548 185.5,104C 179.357,109.812 173.523,115.978 168,122.5C 167.667,122.167 167.333,121.833 167,121.5C 162.425,125.482 158.759,129.815 156,134.5C 153.417,128.406 150.583,122.406 147.5,116.5C 147.624,115.893 147.957,115.56 148.5,115.5 Z M 112.5,118.5 C 121.612,118.241 130.612,118.574 139.5,119.5C 142.568,125.262 145.235,131.262 147.5,137.5C 132.833,138.833 118.167,138.833 103.5,137.5C 106.077,130.936 109.077,124.603 112.5,118.5 Z"/></g>
<g><path style="opacity:0.004" fill="#000000" d="M 92.5,3.5 C 91.8333,2.16667 91.8333,2.16667 92.5,3.5 Z"/></g>
<g><path style="opacity:0.004" fill="#000000" d="M 158.5,2.5 C 159.833,3.16667 159.833,3.16667 158.5,2.5 Z"/></g>
<g><path style="opacity:0.004" fill="#000000" d="M 90.5,5.5 C 89.8333,4.16667 89.8333,4.16667 90.5,5.5 Z"/></g>
<g><path style="opacity:0.004" fill="#000000" d="M 84.5,11.5 C 83.8333,10.1667 83.8333,10.1667 84.5,11.5 Z"/></g>
<g><path style="opacity:0.004" fill="#000000" d="M 81.5,14.5 C 80.8333,13.1667 80.8333,13.1667 81.5,14.5 Z"/></g>
<g><path style="opacity:0.004" fill="#000000" d="M 169.5,13.5 C 170.833,14.1667 170.833,14.1667 169.5,13.5 Z"/></g>
<g><path style="opacity:0.004" fill="#000000" d="M 79.5,16.5 C 78.8333,15.1667 78.8333,15.1667 79.5,16.5 Z"/></g>
<g><path style="opacity:0.004" fill="#000000" d="M 171.5,15.5 C 172.833,16.1667 172.833,16.1667 171.5,15.5 Z"/></g>
<g><path style="opacity:0.004" fill="#000000" d="M 71.5,24.5 C 70.8333,23.1667 70.8333,23.1667 71.5,24.5 Z"/></g>
<g><path style="opacity:0.004" fill="#000000" d="M 66.5,29.5 C 65.8333,28.1667 65.8333,28.1667 66.5,29.5 Z"/></g>
<g><path style="opacity:0.004" fill="#000000" d="M 184.5,28.5 C 185.833,29.1667 185.833,29.1667 184.5,28.5 Z"/></g>
<g><path style="opacity:0.004" fill="#000000" d="M 60.5,35.5 C 59.8333,34.1667 59.8333,34.1667 60.5,35.5 Z"/></g>
<g><path style="opacity:0.004" fill="#000000" d="M 58.5,37.5 C 57.8333,36.1667 57.8333,36.1667 58.5,37.5 Z"/></g>
<g><path style="opacity:1" fill="#b5b5b5" d="M 59.5,123.5 C 59.8333,123.5 60.1667,123.5 60.5,123.5C 64.5,129.5 69.5,134.5 75.5,138.5C 75.5,138.833 75.5,139.167 75.5,139.5C 73.2166,139.392 71.2166,138.559 69.5,137C 65.4648,133.3 61.7981,129.3 58.5,125C 59.056,124.617 59.3893,124.117 59.5,123.5 Z"/></g>
<g><path style="opacity:1" fill="#999999" d="M 66.5,117.5 C 71.8333,122.167 76.8333,127.167 81.5,132.5C 79.9328,133.681 79.0995,135.347 79,137.5C 77.9887,138.337 76.8221,138.67 75.5,138.5C 69.5,134.5 64.5,129.5 60.5,123.5C 60.3505,122.448 60.5172,121.448 61,120.5C 63.2092,120.011 65.0425,119.011 66.5,117.5 Z"/></g>
<g><path style="opacity:1" fill="#9d9d9d" d="M 59.5,123.5 C 59.3893,124.117 59.056,124.617 58.5,125C 61.7981,129.3 65.4648,133.3 69.5,137C 71.2166,138.559 73.2166,139.392 75.5,139.5C 75.9382,139.435 76.2716,139.601 76.5,140C 74.1224,141.638 72.1224,143.805 70.5,146.5C 69.791,145.596 68.791,145.263 67.5,145.5C 62.5,141.167 57.8333,136.5 53.5,131.5C 53.7373,130.209 53.404,129.209 52.5,128.5C 53.6002,127.442 54.9336,126.608 56.5,126C 56.1667,125.667 55.8333,125.333 55.5,125C 56.9308,124.535 58.0975,123.701 59,122.5C 59.3988,122.728 59.5654,123.062 59.5,123.5 Z"/></g>
<g><path style="opacity:1" fill="#696969" d="M 52.5,128.5 C 53.404,129.209 53.7373,130.209 53.5,131.5C 52.6618,131.842 52.3284,132.508 52.5,133.5C 39.9073,147.761 26.574,161.428 12.5,174.5C 9.96937,184.136 13.636,188.302 23.5,187C 37.0857,172.911 51.0857,159.411 65.5,146.5C 66.1667,146.5 66.8333,146.5 67.5,146.5C 68.1667,146.5 68.5,146.833 68.5,147.5C 68.631,148.239 68.4643,148.906 68,149.5C 51.8084,164.692 35.975,180.192 20.5,196C 9.64767,200.247 3.31433,196.747 1.5,185.5C 1.47772,183.035 1.97772,180.702 3,178.5C 20.0887,161.582 36.5887,144.916 52.5,128.5 Z"/></g>
<g><path style="opacity:1" fill="#d2d2d2" d="M 53.5,131.5 C 57.8333,136.5 62.5,141.167 67.5,145.5C 67.5,145.833 67.5,146.167 67.5,146.5C 66.8333,146.5 66.1667,146.5 65.5,146.5C 60.8333,142.5 56.5,138.167 52.5,133.5C 52.3284,132.508 52.6618,131.842 53.5,131.5 Z"/></g>
<g><path style="opacity:1" fill="#a0a0a0" d="M 52.5,133.5 C 56.5,138.167 60.8333,142.5 65.5,146.5C 51.0857,159.411 37.0857,172.911 23.5,187C 13.636,188.302 9.96937,184.136 12.5,174.5C 26.574,161.428 39.9073,147.761 52.5,133.5 Z"/></g>
<g><path style="opacity:0.047" fill="#2f2f2f" d="M 67.5,146.5 C 67.5,146.167 67.5,145.833 67.5,145.5C 68.791,145.263 69.791,145.596 70.5,146.5C 70.1583,147.338 69.4916,147.672 68.5,147.5C 68.5,146.833 68.1667,146.5 67.5,146.5 Z"/></g>
</svg>
