<?xml version="1.0" standalone="no"?>
<!DOCTYPE svg PUBLIC "-//W3C//DTD SVG 20010904//EN"
 "http://www.w3.org/TR/2001/REC-SVG-20010904/DTD/svg10.dtd">
<svg version="1.0" xmlns="http://www.w3.org/2000/svg"
 width="200.000000pt" height="200.000000pt" viewBox="0 0 200.000000 200.000000"
 preserveAspectRatio="xMidYMid meet">

<g transform="translate(0.000000,200.000000) scale(0.100000,-0.100000)"
fill="#000000" stroke="none">
<path d="M755 1764 l-220 -215 -2 -287 -2 -287 76 -77 c64 -64 74 -79 64 -92
-7 -8 -22 -16 -34 -18 -12 -2 -22 -9 -22 -15 0 -7 -3 -12 -6 -10 -12 4 -38
-25 -33 -38 3 -8 -1 -12 -13 -12 -11 1 -19 -6 -21 -19 -4 -31 119 -157 150
-152 15 2 22 9 21 21 0 12 4 16 13 13 13 -5 28 10 29 29 0 6 8 9 18 7 16 -3
21 7 18 35 -1 7 7 16 17 22 16 8 30 -1 88 -60 l68 -69 296 0 295 0 213 213
212 212 0 273 c0 152 -4 272 -9 272 -5 0 -12 16 -15 36 -6 29 -42 70 -207 235
l-200 199 -287 0 -288 0 -219 -216z m733 129 c-6 -7 -7 -13 -3 -13 5 0 0 -9
-10 -20 -10 -11 -15 -20 -10 -20 4 0 2 -7 -5 -15 -7 -8 -10 -15 -6 -15 4 0 -1
-11 -10 -25 -9 -14 -13 -25 -9 -25 5 0 0 -9 -10 -20 -10 -11 -14 -20 -9 -20 5
0 1 -7 -9 -15 -14 -10 -26 -11 -46 -4 -17 6 -43 6 -67 1 -22 -5 -50 -5 -62 -1
-12 5 -43 5 -68 0 -43 -8 -46 -7 -55 18 -6 14 -21 49 -34 76 -12 28 -27 64
-33 80 l-9 30 233 0 c185 0 230 -3 222 -12z m-505 -49 c5 -16 16 -45 25 -64 8
-19 14 -35 12 -35 -2 0 3 -11 10 -25 8 -14 15 -29 15 -35 1 -5 -44 -56 -99
-112 -107 -109 -117 -114 -172 -78 -13 8 -24 13 -24 9 0 -4 -7 0 -16 7 -9 7
-21 14 -28 15 -6 1 -23 9 -38 17 l-28 14 158 161 c86 88 161 160 166 158 6 -1
14 -15 19 -32z m683 -74 c54 -55 105 -100 112 -100 7 0 15 -8 19 -17 3 -10 22
-35 41 -55 20 -21 34 -39 31 -41 -16 -11 -103 -50 -147 -66 l-53 -18 -71 73
c-39 41 -77 74 -83 74 -6 0 -22 11 -35 25 -13 14 -18 25 -12 25 7 0 12 6 12
13 0 7 13 44 29 82 15 39 31 78 34 88 4 9 10 17 15 17 5 0 53 -45 108 -100z
m-271 -129 c3 -6 -3 -14 -12 -20 -10 -6 -14 -11 -9 -11 4 0 1 -11 -8 -25 -9
-14 -13 -25 -10 -25 4 0 -1 -9 -11 -20 -10 -11 -15 -20 -10 -20 4 0 2 -7 -5
-15 -7 -8 -9 -15 -5 -15 5 0 0 -9 -10 -20 -10 -11 -15 -20 -11 -20 3 0 -1 -11
-10 -25 -9 -14 -13 -25 -9 -25 4 0 1 -7 -6 -17 -8 -9 -13 -18 -11 -20 6 -8 1
-23 -8 -23 -5 0 -10 6 -10 14 0 8 -16 49 -35 90 -19 42 -35 79 -35 84 -1 4 -9
25 -20 47 -11 22 -19 43 -20 48 0 4 33 7 73 8 49 0 66 3 52 9 -14 6 2 9 52 9
39 1 74 -3 78 -8z m-299 -59 c0 -4 7 -20 14 -37 7 -16 14 -34 15 -40 0 -5 6
-21 12 -35 6 -14 11 -29 11 -33 0 -4 8 -19 16 -33 9 -13 14 -24 11 -24 -4 0 1
-10 9 -22 27 -39 20 -50 -19 -28 -19 11 -38 20 -43 21 -4 0 -27 10 -52 21 -25
12 -46 20 -48 19 -2 -2 -14 5 -28 13 -13 9 -24 14 -24 10 0 -4 -7 -1 -15 6 -8
7 -15 9 -15 5 0 -4 -7 -2 -15 5 -12 10 -2 25 67 96 57 59 85 81 92 74 6 -6 11
-14 12 -18z m432 -56 c76 -78 80 -85 59 -91 -12 -4 -54 -22 -94 -41 -40 -19
-76 -34 -80 -34 -4 0 -19 -6 -33 -13 -14 -7 -33 -16 -42 -20 -20 -7 -18 1 17
78 12 28 35 85 51 128 16 42 31 77 34 77 4 0 43 -38 88 -84z m383 -268 c0
-123 -1 -226 -1 -230 0 -4 -16 1 -36 13 -20 11 -39 18 -41 15 -3 -3 -20 2 -37
11 -17 10 -34 18 -38 19 -5 1 -10 3 -13 4 -3 1 -8 3 -12 4 -29 5 -32 21 -32
166 1 160 -1 154 52 166 4 1 9 3 12 4 3 1 8 3 13 4 4 1 21 9 38 19 17 9 34 14
37 11 3 -4 16 1 28 10 13 8 25 14 27 11 2 -2 4 -104 3 -227z m-1257 213 c3 -5
40 -21 81 -36 l76 -28 -3 -149 -3 -150 -60 -24 c-51 -21 -82 -35 -117 -52 -5
-2 -8 98 -8 222 0 190 2 226 14 226 8 0 17 -4 20 -9z m990 -202 c-2 -126 -7
-147 -30 -128 -8 6 -14 8 -14 4 0 -5 -9 0 -20 10 -11 10 -23 15 -27 12 -3 -4
-15 1 -26 10 -10 10 -22 17 -26 17 -3 -1 -15 2 -26 6 -11 4 -23 7 -26 6 -3 0
-13 5 -22 13 -10 7 -17 10 -17 6 0 -5 -8 0 -19 9 -10 9 -25 16 -32 14 -8 -2
-14 4 -14 12 0 8 5 15 10 15 6 1 24 8 41 18 17 9 34 14 37 11 2 -3 21 4 41 15
20 12 37 20 39 20 11 -3 59 16 68 27 6 8 15 12 19 9 5 -3 11 -2 14 3 3 5 11 9
18 9 10 0 13 -28 12 -118z m-682 82 c35 -15 96 -41 135 -57 40 -16 73 -31 73
-34 0 -3 -39 -20 -88 -39 -74 -28 -156 -63 -184 -78 -5 -2 -8 50 -8 116 0 67
2 121 4 121 3 0 33 -13 68 -29z m233 -181 c-9 -17 -16 -33 -16 -37 0 -5 -8
-16 -16 -25 -9 -10 -13 -18 -8 -18 4 0 2 -7 -5 -15 -7 -9 -10 -18 -6 -22 3 -3
0 -13 -8 -22 -8 -9 -15 -20 -17 -26 -1 -5 -4 -17 -6 -25 -3 -8 -7 -22 -10 -30
-2 -8 -4 -17 -4 -20 -1 -3 -5 -11 -11 -18 -8 -10 -30 6 -95 70 -78 78 -98 113
-63 113 8 0 30 8 48 18 17 10 32 14 32 11 0 -4 9 1 20 11 11 10 20 15 20 11 0
-3 10 0 23 8 12 8 24 15 27 15 3 0 19 5 35 12 17 7 33 13 37 13 3 1 10 4 14 8
16 17 23 -5 9 -32z m170 9 c5 -5 15 -9 22 -9 7 0 50 -18 95 -39 46 -22 96 -43
111 -47 l29 -7 -88 -88 c-49 -49 -91 -85 -95 -81 -3 4 -12 23 -19 42 -7 19
-22 55 -32 80 -11 25 -23 54 -27 65 -5 11 -18 39 -29 63 l-22 43 23 -7 c12 -3
26 -10 32 -15z m-94 -19 c1 -5 3 -14 4 -20 1 -5 3 -12 4 -15 0 -3 0 -7 -1 -9
-2 -2 6 -13 16 -25 11 -12 16 -21 12 -21 -3 0 1 -11 10 -25 9 -14 13 -25 9
-25 -4 0 -2 -7 5 -15 7 -8 9 -15 5 -15 -5 0 0 -9 10 -20 10 -11 15 -20 12 -20
-4 0 2 -16 13 -35 l20 -35 -125 0 c-69 0 -125 3 -125 8 1 4 9 25 20 47 11 22
19 43 20 47 0 4 13 37 30 72 16 36 32 77 36 91 6 25 23 35 25 15z m-329 -209
c93 -91 117 -131 92 -152 -8 -7 -13 -18 -10 -24 2 -7 -4 -26 -15 -44 -10 -17
-16 -31 -13 -31 4 0 1 -7 -6 -15 -7 -8 -9 -15 -6 -15 4 0 2 -10 -5 -21 -10
-20 -21 -12 -175 142 -112 112 -160 167 -153 174 5 5 13 10 17 10 4 1 17 6 30
13 12 7 22 10 22 6 0 -4 9 1 20 11 11 10 20 15 20 12 0 -4 14 2 31 12 18 11
39 17 48 13 9 -3 55 -44 103 -91z m842 49 c39 -17 78 -32 88 -33 20 -1 37 18
-167 -190 -74 -76 -141 -137 -147 -135 -7 3 -16 17 -21 34 -10 34 -34 91 -47
116 -23 41 -11 62 87 159 81 80 101 95 118 89 11 -4 51 -22 89 -40z m-374
-204 c0 -8 7 -19 15 -26 8 -6 14 -15 13 -18 -1 -4 4 -20 11 -37 7 -16 13 -32
13 -35 0 -3 5 -14 11 -25 19 -35 16 -45 -11 -46 -29 0 -242 0 -359 1 l-73 0
10 28 c12 32 20 49 53 122 l26 55 145 -3 c113 -2 146 -6 146 -16z"/>
<path d="M273 440 c-198 -196 -243 -246 -248 -274 -17 -87 58 -160 144 -141
27 6 253 220 448 426 l63 66 -82 81 c-45 45 -82 82 -82 82 -1 0 -110 -108
-243 -240z"/>
</g>
</svg>
