<svg xmlns="http://www.w3.org/2000/svg" width="200" height="200" viewBox="0 0 200 200" version="1.1"><path d="M 75.177 24.152 L 54 45.305 54 74.215 L 54 103.125 60.969 110.247 C 66.335 115.731, 67.687 117.672, 66.847 118.685 C 66.246 119.408, 64.868 120, 63.784 120 C 62.657 120, 61.590 120.852, 61.293 121.989 C 61.007 123.083, 60.469 123.790, 60.098 123.560 C 58.995 122.879, 52.762 129.807, 53.461 130.938 C 53.822 131.521, 53.527 131.756, 52.791 131.473 C 52.018 131.177, 41.287 141.190, 26.739 155.781 C 2.186 180.405, 2 180.624, 2 184.846 C 2 193.572, 7.455 198.660, 15.800 197.719 C 20.102 197.234, 21.181 196.305, 44.645 172.858 C 58.797 158.715, 68.811 147.954, 68.521 147.198 C 68.243 146.471, 68.482 146.180, 69.062 146.539 C 70.193 147.238, 77.121 141.005, 76.440 139.902 C 76.210 139.531, 76.917 138.993, 78.011 138.707 C 79.148 138.410, 80 137.343, 80 136.216 C 80 135.132, 80.636 133.717, 81.413 133.072 C 82.553 132.126, 83.739 132.876, 87.550 136.950 C 90.148 139.727, 92.693 142, 93.206 142 C 93.719 142, 85.333 133.159, 74.569 122.354 L 55 102.708 55 74.279 L 55 45.849 75.303 25.299 C 92.986 7.401, 96.115 4.651, 99.553 3.990 L 103.500 3.230 99.927 3.115 C 96.561 3.007, 95.127 4.226, 75.177 24.152 M 152.977 4.022 C 155.700 4.663, 160.860 9.288, 176.794 25.374 C 187.982 36.667, 196.986 45.458, 196.803 44.910 C 196.620 44.361, 187.294 34.707, 176.078 23.456 C 158.008 5.329, 155.333 3.012, 152.593 3.102 L 149.500 3.205 152.977 4.022 M 101.676 8.750 C 101.163 9.623, 102.672 14, 103.487 14 C 103.790 14, 103.756 12.875, 103.411 11.500 L 102.783 9 126.451 9 C 139.468 9, 149.942 9.337, 149.727 9.750 C 147.551 13.926, 145.936 18.270, 146.391 18.724 C 146.700 19.033, 147.237 18.434, 147.584 17.393 C 147.930 16.352, 148.841 14.082, 149.607 12.349 C 150.373 10.616, 151 8.928, 151 8.599 C 151 7.718, 102.196 7.868, 101.676 8.750 M 79.034 27.465 L 61.590 44.931 65.545 46.562 C 67.720 47.459, 72.344 49.500, 75.820 51.097 C 79.296 52.694, 82.915 54, 83.863 54 C 85.585 54, 106 33.932, 106 32.239 C 106 31.293, 101.872 20.661, 99.442 15.349 C 98.649 13.616, 98 11.703, 98 11.099 C 98 10.494, 97.658 10, 97.239 10 C 96.821 10, 88.629 17.859, 79.034 27.465 M 151.211 18.775 C 149.402 23.574, 147.489 28.281, 146.961 29.236 C 146.432 30.191, 146 31.497, 146 32.138 C 146 32.779, 150.588 37.960, 156.197 43.652 C 166.057 53.659, 169.719 55.882, 171.525 52.960 C 171.943 52.283, 171.245 52.151, 169.525 52.583 C 167.164 53.176, 165.820 52.161, 156.941 43.088 C 151.473 37.500, 147 32.489, 147 31.951 C 147 31.413, 147.428 30.191, 147.952 29.236 C 148.475 28.281, 149.545 25.925, 150.330 24 C 151.114 22.075, 152.618 18.391, 153.671 15.814 L 155.586 11.128 172.426 27.955 L 189.266 44.783 186.144 45.468 C 184.428 45.845, 182.766 46.569, 182.452 47.077 C 182.139 47.585, 181.009 48, 179.941 48 C 178.873 48, 178 48.443, 178 48.985 C 178 49.819, 186.463 47.068, 189.310 45.308 C 190.126 44.804, 156.257 9.964, 155.011 10.025 C 154.730 10.039, 153.020 13.977, 151.211 18.775 M 80.053 27.477 C 71.015 36.539, 63.818 44.150, 64.060 44.390 C 65.083 45.406, 82.239 53, 83.510 53 C 84.905 53, 95.780 42.816, 101.979 35.704 C 104.770 32.502, 105.125 31.562, 104.246 29.704 C 102.586 26.194, 100.395 20.880, 98.491 15.750 C 97.521 13.137, 96.674 11, 96.608 11 C 96.541 11, 89.092 18.415, 80.053 27.477 M 104.060 15.623 C 103.973 17.263, 108.080 26.253, 108.655 25.679 C 108.923 25.410, 108.012 22.786, 106.631 19.846 C 105.249 16.905, 104.092 15.005, 104.060 15.623 M 143.967 22.611 C 143.368 24.200, 142.264 26.738, 141.515 28.250 C 140.766 29.762, 140.479 31, 140.878 31 C 141.781 31, 146.149 20.816, 145.517 20.184 C 145.263 19.930, 144.566 21.023, 143.967 22.611 M 109 27.711 C 109 28.285, 109.787 29.373, 110.750 30.128 C 112.369 31.397, 112.390 31.350, 111.033 29.500 C 110.226 28.400, 109.439 27.313, 109.283 27.083 C 109.127 26.854, 109 27.137, 109 27.711 M 117.768 30.725 C 119.565 30.947, 122.265 30.943, 123.768 30.715 C 125.271 30.486, 123.800 30.304, 120.500 30.310 C 117.200 30.315, 115.971 30.502, 117.768 30.725 M 130.250 30.716 C 131.762 30.945, 134.238 30.945, 135.750 30.716 C 137.262 30.487, 136.025 30.300, 133 30.300 C 129.975 30.300, 128.738 30.487, 130.250 30.716 M 112.596 35.844 C 112.025 36.768, 115.066 45.425, 116.412 46.704 C 117.459 47.700, 116.257 43.458, 114.398 39.596 C 113.629 37.999, 113 36.537, 113 36.346 C 113 36.156, 118.823 36, 125.941 36 L 138.881 36 137.447 38.750 C 136.658 40.263, 136.010 42.198, 136.006 43.050 C 136.003 43.903, 135.601 45.028, 135.112 45.550 C 134.624 46.073, 133.933 47.625, 133.577 49 C 133.128 50.732, 133.483 50.425, 134.734 48 C 137.548 42.546, 139.848 36.181, 139.229 35.562 C 138.320 34.653, 113.168 34.919, 112.596 35.844 M 98.282 46.905 L 89.064 56.540 92.282 57.902 C 94.052 58.651, 98.348 60.595, 101.828 62.221 C 105.309 63.847, 108.385 64.948, 108.664 64.669 C 109.269 64.064, 96.438 58, 94.553 58 C 93.833 58, 92.756 57.411, 92.159 56.692 C 91.324 55.685, 92.988 53.478, 99.366 47.133 C 108.029 38.516, 108.771 38.294, 110.469 43.825 C 110.861 45.104, 111.388 45.945, 111.640 45.694 C 112.200 45.133, 108.732 36.946, 108.014 37.135 C 107.731 37.209, 103.352 41.606, 98.282 46.905 M 141.474 40.409 C 140.599 42.503, 140.124 44.457, 140.418 44.751 C 140.712 45.045, 141.226 44.434, 141.560 43.393 C 143.403 37.646, 143.093 37.548, 152.290 46.788 C 160.794 55.333, 161.005 55.655, 158.790 56.727 C 154.216 58.940, 145.455 62.800, 143.607 63.416 C 142.566 63.763, 141.975 64.308, 142.294 64.628 C 142.614 64.947, 145.266 64.092, 148.187 62.727 C 151.109 61.362, 155.621 59.378, 158.214 58.318 L 162.928 56.390 152.996 46.496 L 143.064 36.602 141.474 40.409 M 138.373 47.750 C 137.564 50.260, 134.094 58.792, 131.888 63.695 C 130.098 67.673, 129.541 70, 130.378 70 C 130.586 70, 132.273 69.391, 134.128 68.648 C 135.983 67.904, 138.352 66.993, 139.393 66.624 C 140.434 66.255, 141.045 65.712, 140.751 65.418 C 140.457 65.124, 138.538 65.584, 136.486 66.441 C 131.838 68.383, 132 68.399, 132 66 C 132 64.900, 132.450 64, 133 64 C 133.550 64, 134 63.323, 134 62.495 C 134 61.667, 135.067 58.778, 136.372 56.073 C 138.899 50.835, 140.395 46, 139.488 46 C 139.185 46, 138.683 46.788, 138.373 47.750 M 112 47.403 C 112 48.518, 116.146 58.930, 118.058 62.616 C 120.687 67.688, 119.453 63.100, 116.362 56.314 C 115.063 53.462, 114 50.451, 114 49.623 C 114 48.795, 113.550 47.840, 113 47.500 C 112.450 47.160, 112 47.117, 112 47.403 M 117 48.540 C 117 50.152, 123.891 64.733, 123.950 63.245 C 123.978 62.555, 122.875 59.658, 121.500 56.808 C 120.125 53.958, 119 51.061, 119 50.372 C 119 49.682, 118.550 48.840, 118 48.500 C 117.450 48.160, 117 48.178, 117 48.540 M 60 74.500 C 60 87.975, 60.393 99, 60.873 99 C 61.975 99, 71 95.031, 71 94.547 C 71 94.028, 66.683 95.160, 65.500 95.989 C 64.950 96.374, 63.712 96.970, 62.750 97.313 C 61.115 97.896, 61 96.391, 61 74.469 C 61 54.274, 61.209 51, 62.500 51 C 63.325 51, 64 51.450, 64 52 C 64 52.550, 64.562 53, 65.250 53 C 65.937 53, 69.981 54.462, 74.236 56.250 L 81.974 59.500 81.987 74.222 L 82 88.945 76.750 91.487 C 71.467 94.044, 73.451 93.963, 79.663 91.367 L 83 89.973 83 74.473 L 83 58.973 77.750 56.643 C 74.862 55.361, 70.925 53.720, 69 52.996 C 67.075 52.272, 65.073 51.302, 64.550 50.840 C 64.028 50.378, 62.790 50, 61.800 50 C 60.116 50, 60 51.574, 60 74.500 M 173.500 51 C 172.718 52.266, 174.042 52.266, 176 51 C 177.293 50.165, 177.266 50.029, 175.809 50.015 C 174.879 50.007, 173.840 50.450, 173.500 51 M 186.232 51.449 C 184.985 52.138, 183.703 52.964, 183.383 53.283 C 182.426 54.240, 187.395 52.793, 188.774 51.713 C 189.475 51.164, 190.271 50.938, 190.543 51.210 C 190.815 51.482, 190.917 62.115, 190.769 74.839 L 190.500 97.973 187.973 96.662 C 185.252 95.249, 181 93.960, 181 94.547 C 181 95.031, 190.025 99, 191.127 99 C 191.607 99, 192 87.975, 192 74.500 C 192 51.796, 191.872 50.007, 190.250 50.098 C 189.287 50.152, 187.480 50.760, 186.232 51.449 M 130.502 55.669 C 129.584 57.776, 128.192 60.986, 127.407 62.803 C 126.623 64.620, 125.578 65.857, 125.084 65.552 C 124.590 65.247, 124.422 65.898, 124.710 66.999 C 124.998 68.099, 125.518 68.988, 125.867 68.973 C 126.611 68.942, 133.051 52.717, 132.527 52.193 C 132.331 51.998, 131.420 53.562, 130.502 55.669 M 174.250 56.562 L 169 58.961 169 74.467 L 169 89.973 172.337 91.367 C 178.549 93.963, 180.533 94.044, 175.250 91.487 L 170 88.945 170 74.094 L 170 59.244 176 57 C 179.300 55.766, 182 54.586, 182 54.378 C 182 53.514, 179.187 54.307, 174.250 56.562 M 87.663 60.750 C 87.413 61.163, 87.202 67.236, 87.194 74.247 C 87.180 86.753, 87.888 89.619, 90.337 86.966 C 91.238 85.990, 91.162 85.822, 90 86.224 C 88.717 86.667, 88.500 84.875, 88.500 73.859 C 88.500 63.689, 88.774 61.082, 89.802 61.477 C 90.518 61.752, 90.829 61.532, 90.493 60.989 C 89.769 59.818, 88.303 59.694, 87.663 60.750 M 160.434 61.107 C 159.973 61.852, 160.445 61.994, 161.875 61.540 C 163.968 60.875, 164 61.062, 164 74 C 164 86.938, 163.968 87.125, 161.875 86.460 C 160.445 86.006, 159.973 86.148, 160.434 86.893 C 160.810 87.502, 161.991 88, 163.059 88 C 164.888 88, 165 87.191, 165 74 C 165 60.809, 164.888 60, 163.059 60 C 161.991 60, 160.810 60.498, 160.434 61.107 M 98 65.181 C 101.575 66.866, 105.625 68.595, 107 69.023 C 108.375 69.451, 111.228 70.544, 113.341 71.452 C 115.453 72.360, 116.929 72.694, 116.621 72.195 C 116.312 71.696, 112.170 69.820, 107.416 68.026 C 102.663 66.232, 97.586 64.145, 96.136 63.388 C 94.686 62.631, 93.050 62.036, 92.500 62.064 C 91.950 62.093, 94.425 63.495, 98 65.181 M 151.500 65.037 C 148.200 66.632, 144.739 67.952, 143.809 67.969 C 142.412 67.995, 139.950 70, 141.315 70 C 143.251 70, 159 63.299, 159 62.475 C 159 61.614, 157.569 62.102, 151.500 65.037 M 112 66.237 C 113.375 66.843, 115.979 67.996, 117.786 68.800 C 119.593 69.604, 121.325 70.008, 121.636 69.697 C 122.456 68.878, 121.013 66.874, 120.037 67.477 C 119.584 67.757, 117.308 67.314, 114.981 66.493 C 110.101 64.771, 108.328 64.619, 112 66.237 M 136.250 71.031 C 135.012 71.529, 134 72.113, 134 72.329 C 134 73.070, 139.029 71.763, 139.574 70.881 C 140.243 69.798, 139.201 69.845, 136.250 71.031 M 117.081 74.402 C 116.442 75.173, 114.758 76.095, 113.341 76.451 C 111.924 76.806, 110.989 77.322, 111.264 77.597 C 111.936 78.269, 120 74.732, 120 73.764 C 120 72.525, 118.337 72.889, 117.081 74.402 M 131 73.764 C 131 74.446, 138.186 78, 139.566 78 C 139.870 78, 139.840 77.550, 139.500 77 C 139.160 76.450, 138.064 76, 137.063 76 C 136.063 76, 134.685 75.325, 134 74.500 C 132.676 72.905, 131 72.494, 131 73.764 M 105.322 79.326 C 103.574 79.972, 101.811 80.838, 101.405 81.250 C 100.999 81.662, 99.842 82, 98.833 82 C 97.825 82, 97 82.436, 97 82.969 C 97 83.984, 98.813 83.483, 103 81.310 C 104.375 80.596, 106.261 80.010, 107.191 80.006 C 108.121 80.003, 109.160 79.550, 109.500 79 C 110.267 77.758, 109.379 77.828, 105.322 79.326 M 117.500 79.052 C 116.400 79.556, 114.200 80.438, 112.611 81.012 C 111.023 81.586, 109.973 82.306, 110.278 82.612 C 110.584 82.917, 112.953 82.230, 115.544 81.084 C 121.184 78.589, 121.380 78.568, 120.618 80.552 C 120.277 81.442, 120.445 81.843, 121.011 81.493 C 122.432 80.615, 122.232 77.987, 120.750 78.068 C 120.063 78.105, 118.600 78.548, 117.500 79.052 M 133 79.814 C 137.204 82.135, 141.967 83.681, 140.500 82.249 C 139.599 81.370, 137.758 80.612, 131.500 78.544 C 130.400 78.180, 131.075 78.752, 133 79.814 M 141.434 78.893 C 141.810 79.502, 142.806 80, 143.647 80 C 144.488 80, 148.123 81.364, 151.724 83.031 C 155.326 84.698, 158.472 85.861, 158.717 85.616 C 158.962 85.371, 157.663 84.511, 155.831 83.704 C 143.539 78.292, 140.417 77.248, 141.434 78.893 M 124.730 81.925 C 124.377 83.276, 124.640 83.692, 125.613 83.318 C 126.376 83.025, 127.026 83.397, 127.059 84.143 C 127.127 85.706, 132.852 97.915, 132.941 96.686 C 132.974 96.238, 131.887 93.438, 130.526 90.463 C 129.165 87.487, 127.766 83.916, 127.417 82.527 C 126.663 79.523, 125.430 79.247, 124.730 81.925 M 131.717 84.250 C 134.313 90.739, 136.916 95.655, 136.960 94.154 C 136.982 93.414, 136.365 91.614, 135.590 90.154 C 134.814 88.694, 133.443 85.813, 132.543 83.750 C 130.293 78.595, 129.618 79.004, 131.717 84.250 M 102.500 85.380 C 99.750 86.675, 95.588 88.538, 93.250 89.519 C 90.912 90.501, 89 91.582, 89 91.922 C 89 92.852, 107.412 111, 108.356 111 C 108.807 111, 105.086 106.965, 100.088 102.033 C 95.089 97.101, 91 92.636, 91 92.110 C 91 91.585, 92.484 90.665, 94.297 90.067 C 98.467 88.691, 109.837 83.069, 108.500 83.044 C 107.950 83.034, 105.250 84.085, 102.500 85.380 M 142.500 84 C 142.840 84.550, 143.690 85, 144.390 85 C 145.089 85, 147.672 86.013, 150.131 87.250 C 152.589 88.487, 156.279 90.152, 158.331 90.949 L 162.062 92.398 153.302 101.199 C 148.484 106.039, 144.256 110, 143.907 110 C 143.335 110, 142.578 108.238, 139.014 98.611 C 138.425 97.023, 137.700 95.966, 137.402 96.264 C 136.913 96.753, 139.500 103.905, 142.294 109.791 C 143.342 111.998, 143.743 111.722, 153.191 102.310 C 158.586 96.935, 163 92.280, 163 91.966 C 163 91.652, 160.705 90.570, 157.900 89.561 C 155.095 88.553, 150.708 86.666, 148.150 85.368 C 143.120 82.816, 141.530 82.431, 142.500 84 M 92.500 85 C 91.718 86.266, 93.042 86.266, 95 85 C 96.293 84.165, 96.266 84.029, 94.809 84.015 C 93.879 84.007, 92.840 84.450, 92.500 85 M 116.914 88.689 C 113.914 95.275, 111.892 101.225, 112.461 101.795 C 113.010 102.343, 115 97.514, 115 95.635 C 115 94.956, 115.382 93.973, 115.850 93.450 C 116.940 92.230, 120.134 84, 119.517 84 C 119.260 84, 118.089 86.110, 116.914 88.689 M 120.869 90.711 C 117.343 98.655, 116.507 101.423, 117.893 100.566 C 118.502 100.190, 119 99.318, 119 98.628 C 119 97.939, 120.148 94.995, 121.550 92.088 C 122.953 89.180, 123.956 86.368, 123.780 85.839 C 123.603 85.310, 122.293 87.502, 120.869 90.711 M 81.434 95.107 C 80.984 95.835, 81.409 96.005, 82.674 95.603 C 84.168 95.129, 86.884 97.311, 94.800 105.345 C 104.605 115.296, 106.036 117.477, 104.123 119.550 C 102.906 120.869, 98.829 132.163, 99.374 132.707 C 99.618 132.951, 100.136 132.104, 100.526 130.825 C 100.916 129.546, 102.307 126.124, 103.617 123.220 C 104.928 120.317, 106 117.375, 106 116.683 C 106 114.943, 85.239 94, 83.514 94 C 82.746 94, 81.810 94.498, 81.434 95.107 M 156.733 104.766 C 150.830 110.688, 146 116.094, 146 116.780 C 146 117.466, 146.417 118.809, 146.927 119.764 C 147.437 120.719, 148.122 122.352, 148.451 123.393 C 148.779 124.434, 149.280 125.053, 149.565 124.768 C 149.850 124.483, 149.365 122.453, 148.486 120.256 L 146.888 116.263 157.319 105.615 C 165.342 97.424, 168.162 95.125, 169.539 95.653 C 170.767 96.125, 171.101 95.973, 170.605 95.170 C 170.207 94.526, 169.338 94, 168.674 94 C 168.010 94, 162.636 98.845, 156.733 104.766 M 75.500 97.408 C 67.618 100.988, 65.117 102, 64.158 102 C 60.644 102, 63.655 105.921, 78.785 121.046 C 88.112 130.371, 96.204 138, 96.765 138 C 97.327 138, 98.059 137.288, 98.393 136.418 C 99.372 133.867, 99.036 133.368, 97.607 135.252 C 96.402 136.839, 94.763 135.486, 80.139 120.831 C 71.262 111.936, 64 104.285, 64 103.829 C 64 103.373, 64.563 102.987, 65.250 102.972 C 66.783 102.937, 80.900 96.096, 79.500 96.067 C 78.950 96.055, 77.150 96.659, 75.500 97.408 M 173 96.390 C 173 97.088, 185.500 103, 186.976 103 C 187.631 103, 188.017 103.436, 187.833 103.969 C 187.650 104.501, 180.308 112.203, 171.518 121.083 L 155.536 137.228 154.155 133.864 C 153.396 132.014, 152.363 129.425, 151.860 128.111 C 151.356 126.798, 150.722 125.945, 150.451 126.216 C 149.612 127.055, 154.209 138, 155.400 138 C 156.017 138, 164.112 130.400, 173.389 121.111 C 188.608 105.872, 191.537 102, 187.842 102 C 187.270 102, 185.159 101.279, 183.151 100.398 C 176.553 97.503, 174.510 96.599, 173.750 96.238 C 173.338 96.042, 173 96.111, 173 96.390 M 133 98.599 C 133 98.928, 133.647 100.616, 134.438 102.349 C 135.228 104.082, 136.555 107.188, 137.386 109.250 L 138.898 113 126.045 113 L 113.192 113 115.139 107.876 C 116.210 105.058, 116.854 102.521, 116.571 102.238 C 115.976 101.643, 114 106.461, 114 108.506 C 114 109.263, 113.550 110.160, 113 110.500 C 112.450 110.840, 112 111.766, 112 112.559 C 112 113.742, 114.405 114, 125.441 114 C 132.834 114, 139.131 113.597, 139.436 113.104 C 139.740 112.611, 139.320 110.924, 138.501 109.354 C 137.682 107.784, 137.010 106.007, 137.006 105.404 C 136.999 104.109, 134.045 98, 133.427 98 C 133.192 98, 133 98.269, 133 98.599 M 110.168 105.949 C 109.583 107.627, 109.317 109, 109.577 109 C 110.252 109, 112.139 103.805, 111.644 103.310 C 111.417 103.083, 110.753 104.271, 110.168 105.949 M 175.500 124.354 C 163.950 135.979, 156.300 144.071, 158.500 142.337 C 163.211 138.623, 197.409 104.064, 196.870 103.562 C 196.666 103.373, 187.050 112.729, 175.500 124.354 M 110.049 118.908 C 108.703 121.424, 108.730 123.068, 110.080 120.750 C 110.979 119.207, 112.866 119, 126.054 119 L 141.008 119 143.185 123.986 C 144.383 126.728, 145.544 128.789, 145.767 128.567 C 146.130 128.204, 144.080 122.915, 142.059 119 C 141.433 117.787, 138.400 117.447, 126.191 117.224 C 112.071 116.966, 111.030 117.075, 110.049 118.908 M 106.069 127.348 C 104.931 129.846, 104.027 132.477, 104.060 133.195 C 104.092 133.913, 105.249 132.095, 106.631 129.154 C 108.012 126.214, 108.916 123.583, 108.640 123.307 C 108.364 123.031, 107.207 124.849, 106.069 127.348 M 146 130.599 C 146 130.928, 146.734 132.744, 147.631 134.635 C 148.528 136.525, 148.974 138.359, 148.622 138.711 C 147.538 139.795, 126.799 140.290, 114.547 139.524 C 103.489 138.833, 102.960 138.701, 103.572 136.774 C 103.999 135.427, 103.844 134.978, 103.107 135.434 C 102.498 135.810, 102 137.216, 102 138.559 L 102 141 126.500 141 C 139.975 141, 151 140.607, 151 140.127 C 151 138.900, 147.004 130, 146.453 130 C 146.204 130, 146 130.269, 146 130.599 M 95 144 C 95 144.550, 95.477 145, 96.059 145 C 96.641 145, 96.840 144.550, 96.500 144 C 96.160 143.450, 95.684 143, 95.441 143 C 95.198 143, 95 143.450, 95 144 M 111.750 145.748 C 119.587 145.917, 132.412 145.917, 140.250 145.748 C 148.087 145.579, 141.675 145.441, 126 145.441 C 110.325 145.441, 103.912 145.579, 111.750 145.748" stroke="none" fill="#ad5a08" fill-rule="evenodd"/><path d="M 99.553 4.040 C 96.085 4.663, 93.140 7.245, 75.303 25.299 L 55 45.849 55 74.282 L 55 102.715 76.070 123.858 L 97.139 145 126.015 145 L 154.891 145 175.946 123.890 L 197 102.779 197 74.275 L 197 45.770 176.750 25.334 C 159.596 8.022, 155.888 4.752, 152.500 3.950 C 147.980 2.880, 105.610 2.952, 99.553 4.040 M 101.610 8.822 C 101.331 9.274, 101.754 10.900, 102.551 12.436 C 103.348 13.972, 104.023 15.740, 104.052 16.364 C 104.080 16.989, 105.543 20.425, 107.302 24 L 110.500 30.500 126.175 30.775 C 141.715 31.048, 141.855 31.031, 142.564 28.775 C 142.957 27.524, 144.395 24.025, 145.760 21 C 149.936 11.741, 151 9.222, 151 8.599 C 151 7.672, 102.185 7.892, 101.610 8.822 M 79.034 27.465 L 61.590 44.931 65.545 46.562 C 67.720 47.459, 72.344 49.500, 75.820 51.097 C 79.296 52.694, 82.915 54, 83.863 54 C 85.585 54, 106 33.932, 106 32.239 C 106 31.293, 101.872 20.661, 99.442 15.349 C 98.649 13.616, 98 11.703, 98 11.099 C 98 10.494, 97.658 10, 97.239 10 C 96.821 10, 88.629 17.859, 79.034 27.465 M 151.211 18.775 C 149.402 23.574, 147.489 28.281, 146.961 29.236 C 146.432 30.191, 146 31.497, 146 32.138 C 146 32.779, 150.588 37.960, 156.197 43.652 C 165.994 53.595, 168.994 55.449, 171.550 53.143 C 172.072 52.671, 176.100 50.819, 180.500 49.027 C 184.900 47.235, 188.888 45.538, 189.362 45.256 C 190.147 44.790, 156.194 9.967, 155.011 10.025 C 154.730 10.039, 153.020 13.977, 151.211 18.775 M 112.566 35.894 C 112.049 36.730, 112.992 39.539, 116.630 48 C 117.458 49.925, 118.508 52.400, 118.964 53.500 C 119.420 54.600, 120.965 58.100, 122.397 61.277 C 123.828 64.455, 125 67.492, 125 68.027 C 125 70.966, 126.890 67.943, 129.878 60.225 C 131.735 55.426, 134.069 49.700, 135.064 47.500 C 138.549 39.793, 139.825 36.158, 139.248 35.582 C 138.295 34.629, 113.166 34.923, 112.566 35.894 M 98.282 46.905 L 89.064 56.540 92.282 57.893 C 94.052 58.637, 97.750 60.295, 100.500 61.577 C 103.250 62.859, 107.975 64.841, 111 65.982 C 114.025 67.122, 117.512 68.568, 118.748 69.196 C 121.786 70.737, 122.335 69.872, 120.524 66.399 C 119.693 64.804, 119.010 63.176, 119.006 62.780 C 119.003 62.383, 117.875 59.600, 116.500 56.594 C 115.125 53.588, 114 50.718, 114 50.218 C 114 49.717, 113.381 48.001, 112.625 46.404 C 111.868 44.807, 110.633 42.038, 109.880 40.250 C 109.128 38.462, 108.284 37.061, 108.006 37.135 C 107.728 37.209, 103.352 41.606, 98.282 46.905 M 141.487 40.551 C 140.620 42.723, 139.527 45.400, 139.058 46.500 C 138.590 47.600, 137.209 50.975, 135.991 54 C 134.772 57.025, 132.926 61.388, 131.888 63.695 C 130.098 67.673, 129.541 70, 130.378 70 C 131.153 70, 138.355 67.018, 148 62.705 C 151.025 61.352, 155.621 59.378, 158.214 58.318 L 162.928 56.390 152.996 46.496 L 143.064 36.602 141.487 40.551 M 60 74.500 C 60 89.708, 60.369 99, 60.973 99 C 61.508 99, 64.320 97.894, 67.223 96.543 C 70.125 95.191, 74.750 93.219, 77.500 92.161 L 82.500 90.237 82.775 74.617 L 83.051 58.996 77.775 56.654 C 74.874 55.366, 70.925 53.720, 69 52.996 C 67.075 52.272, 65.073 51.302, 64.550 50.840 C 64.028 50.378, 62.790 50, 61.800 50 C 60.116 50, 60 51.574, 60 74.500 M 185 51.988 C 183.075 52.984, 178.800 54.904, 175.500 56.256 L 169.500 58.712 169.500 74.474 L 169.500 90.235 174.500 92.160 C 177.250 93.219, 181.875 95.191, 184.777 96.543 C 187.680 97.894, 190.492 99, 191.027 99 C 191.631 99, 192 89.708, 192 74.500 C 192 47.123, 192.333 48.193, 185 51.988 M 87.663 60.750 C 86.872 62.054, 87.143 86.971, 87.954 87.471 C 88.380 87.735, 90.477 87.114, 92.614 86.093 C 100.480 82.335, 105.914 80, 106.791 80 C 107.287 80, 108.999 79.381, 110.596 78.625 C 112.193 77.868, 114.963 76.633, 116.750 75.880 C 118.537 75.128, 119.996 74.284, 119.992 74.006 C 119.982 73.317, 115.767 71.321, 108.043 68.347 C 100.525 65.453, 93.235 62.338, 90.764 60.965 C 88.673 59.803, 88.255 59.774, 87.663 60.750 M 160 61.055 C 157.565 62.576, 145.258 68, 144.242 68 C 143.728 68, 142.001 68.619, 140.404 69.375 C 138.807 70.132, 136.037 71.367, 134.250 72.120 C 132.463 72.872, 131 73.719, 131 74 C 131 74.281, 132.463 75.128, 134.250 75.880 C 136.037 76.633, 138.807 77.868, 140.404 78.625 C 142.001 79.381, 143.713 80, 144.209 80 C 145.089 80, 150.527 82.338, 158.438 86.118 C 165.121 89.312, 165 89.535, 165 74 C 165 61.311, 164.836 60.006, 163.250 60.059 C 162.287 60.091, 160.825 60.539, 160 61.055 M 117 79.245 C 115.625 79.855, 112.475 81.200, 110 82.234 C 107.525 83.268, 103.700 84.934, 101.500 85.935 C 99.300 86.937, 95.588 88.555, 93.250 89.530 C 90.912 90.506, 89 91.582, 89 91.922 C 89 92.261, 93.268 96.789, 98.483 101.984 C 107.555 111.018, 108.031 111.342, 109.452 109.464 C 110.268 108.384, 110.966 107.050, 111.002 106.500 C 111.038 105.950, 111.937 103.700, 113 101.500 C 114.063 99.300, 114.947 97.022, 114.966 96.438 C 114.985 95.854, 115.871 93.573, 116.935 91.370 C 117.999 89.168, 119.174 86.154, 119.546 84.673 C 119.918 83.193, 120.622 81.734, 121.111 81.432 C 122.456 80.600, 122.176 77.990, 120.750 78.068 C 120.063 78.105, 118.375 78.635, 117 79.245 M 130.417 80.527 C 130.766 81.916, 132.116 85.404, 133.417 88.277 C 134.718 91.149, 136.989 96.650, 138.463 100.500 C 143.492 113.631, 142.010 113.449, 153.191 102.310 C 158.586 96.935, 163 92.282, 163 91.970 C 163 91.657, 161.313 90.810, 159.250 90.087 C 157.188 89.365, 152.575 87.443, 149 85.817 C 138.085 80.852, 131.251 78, 130.269 78 C 130.002 78, 130.069 79.137, 130.417 80.527 M 125 80.927 C 125 81.437, 123.425 85.264, 121.500 89.431 C 119.575 93.599, 117.985 97.344, 117.966 97.754 C 117.947 98.164, 117.063 100.300, 116 102.500 C 114.937 104.700, 114.053 107.261, 114.034 108.191 C 114.015 109.121, 113.550 110.160, 113 110.500 C 112.450 110.840, 112 111.766, 112 112.559 C 112 113.742, 114.405 114, 125.441 114 C 132.834 114, 139.131 113.597, 139.436 113.104 C 139.740 112.611, 139.320 110.924, 138.501 109.354 C 137.682 107.784, 137.010 105.980, 137.006 105.345 C 137.003 104.709, 136.122 102.459, 135.049 100.345 C 131.933 94.206, 128.106 85.270, 127.417 82.527 C 126.818 80.138, 125 78.935, 125 80.927 M 81 95.011 C 80.175 95.503, 77.813 96.601, 75.750 97.452 C 73.688 98.304, 70.469 99.675, 68.599 100.500 C 66.728 101.325, 64.730 102, 64.158 102 C 60.644 102, 63.655 105.921, 78.785 121.046 C 88.112 130.371, 96.191 138, 96.736 138 C 97.282 138, 98.524 135.863, 99.497 133.250 C 100.470 130.637, 102.331 126.124, 103.633 123.220 C 104.935 120.317, 106 117.375, 106 116.683 C 106 115.025, 85.263 93.983, 83.705 94.059 C 83.042 94.091, 81.825 94.520, 81 95.011 M 156.733 104.766 C 150.830 110.688, 146 116.094, 146 116.780 C 146 117.466, 146.412 118.809, 146.916 119.764 C 148.119 122.045, 150.323 127.359, 152.509 133.250 C 153.479 135.863, 154.778 138, 155.397 138 C 156.016 138, 164.112 130.400, 173.389 121.111 C 188.608 105.872, 191.537 102, 187.842 102 C 187.270 102, 185.159 101.272, 183.151 100.381 C 181.143 99.491, 177.925 98.119, 176 97.333 C 174.075 96.547, 171.719 95.475, 170.764 94.952 C 169.809 94.428, 168.676 94, 168.247 94 C 167.817 94, 162.636 98.845, 156.733 104.766 M 107.526 124.378 C 105.587 128.465, 104 132.500, 104 133.345 C 104 134.190, 103.550 135.160, 103 135.500 C 102.450 135.840, 102 137.216, 102 138.559 L 102 141 126.500 141 C 140.942 141, 151 140.618, 151 140.070 C 151 139.558, 149.621 136.071, 147.937 132.320 C 146.252 128.569, 144.399 124.375, 143.821 123 C 141.387 117.219, 142.303 117.519, 126.168 117.224 L 111.052 116.948 107.526 124.378" stroke="none" fill="#22a3a4" fill-rule="evenodd"/></svg>