<?xml version="1.0" standalone="no"?>
<svg xmlns="http://www.w3.org/2000/svg" version="1.1" width="255" height="255">
	<!-- Created with https://api.qrserver.com (QR Code API, see goQR.me/api for information) -->
	<title>QR Code</title>
	<desc>BEGIN:VCARD
VERSION:2.1
FN:Pavel Katorgin
N:Katorgin;Pavel
TEL;CELL:+77779352828
TEL;HOME;VOICE:+66623032823
EMAIL;HOME;INTERNET:Pablo.katorgini@gmail.com
URL:https://find.dhamma.gift/
END:VCARD
</desc>
	<rect style="fill:rgb(255, 255, 255);fill-opacity:1" x="0" y="0" width="255" height="255" />
	<g id="elements">
		<path style="fill:rgb(3, 56, 14)" d="M 5,5 l 5,0 0,5 -5,0 z M 10,5 l 5,0 0,5 -5,0 z M 15,5 l 5,0 0,5 -5,0 z M 20,5 l 5,0 0,5 -5,0 z M 25,5 l 5,0 0,5 -5,0 z M 30,5 l 5,0 0,5 -5,0 z M 35,5 l 5,0 0,5 -5,0 z M 60,5 l 5,0 0,5 -5,0 z M 70,5 l 5,0 0,5 -5,0 z M 75,5 l 5,0 0,5 -5,0 z M 80,5 l 5,0 0,5 -5,0 z M 105,5 l 5,0 0,5 -5,0 z M 115,5 l 5,0 0,5 -5,0 z M 125,5 l 5,0 0,5 -5,0 z M 130,5 l 5,0 0,5 -5,0 z M 140,5 l 5,0 0,5 -5,0 z M 155,5 l 5,0 0,5 -5,0 z M 185,5 l 5,0 0,5 -5,0 z M 205,5 l 5,0 0,5 -5,0 z M 215,5 l 5,0 0,5 -5,0 z M 220,5 l 5,0 0,5 -5,0 z M 225,5 l 5,0 0,5 -5,0 z M 230,5 l 5,0 0,5 -5,0 z M 235,5 l 5,0 0,5 -5,0 z M 240,5 l 5,0 0,5 -5,0 z M 245,5 l 5,0 0,5 -5,0 z M 5,10 l 5,0 0,5 -5,0 z M 35,10 l 5,0 0,5 -5,0 z M 45,10 l 5,0 0,5 -5,0 z M 50,10 l 5,0 0,5 -5,0 z M 55,10 l 5,0 0,5 -5,0 z M 85,10 l 5,0 0,5 -5,0 z M 90,10 l 5,0 0,5 -5,0 z M 95,10 l 5,0 0,5 -5,0 z M 105,10 l 5,0 0,5 -5,0 z M 130,10 l 5,0 0,5 -5,0 z M 135,10 l 5,0 0,5 -5,0 z M 160,10 l 5,0 0,5 -5,0 z M 165,10 l 5,0 0,5 -5,0 z M 170,10 l 5,0 0,5 -5,0 z M 175,10 l 5,0 0,5 -5,0 z M 180,10 l 5,0 0,5 -5,0 z M 185,10 l 5,0 0,5 -5,0 z M 195,10 l 5,0 0,5 -5,0 z M 200,10 l 5,0 0,5 -5,0 z M 205,10 l 5,0 0,5 -5,0 z M 215,10 l 5,0 0,5 -5,0 z M 245,10 l 5,0 0,5 -5,0 z M 5,15 l 5,0 0,5 -5,0 z M 15,15 l 5,0 0,5 -5,0 z M 20,15 l 5,0 0,5 -5,0 z M 25,15 l 5,0 0,5 -5,0 z M 35,15 l 5,0 0,5 -5,0 z M 80,15 l 5,0 0,5 -5,0 z M 85,15 l 5,0 0,5 -5,0 z M 135,15 l 5,0 0,5 -5,0 z M 140,15 l 5,0 0,5 -5,0 z M 150,15 l 5,0 0,5 -5,0 z M 155,15 l 5,0 0,5 -5,0 z M 160,15 l 5,0 0,5 -5,0 z M 165,15 l 5,0 0,5 -5,0 z M 170,15 l 5,0 0,5 -5,0 z M 200,15 l 5,0 0,5 -5,0 z M 205,15 l 5,0 0,5 -5,0 z M 215,15 l 5,0 0,5 -5,0 z M 225,15 l 5,0 0,5 -5,0 z M 230,15 l 5,0 0,5 -5,0 z M 235,15 l 5,0 0,5 -5,0 z M 245,15 l 5,0 0,5 -5,0 z M 5,20 l 5,0 0,5 -5,0 z M 15,20 l 5,0 0,5 -5,0 z M 20,20 l 5,0 0,5 -5,0 z M 25,20 l 5,0 0,5 -5,0 z M 35,20 l 5,0 0,5 -5,0 z M 45,20 l 5,0 0,5 -5,0 z M 50,20 l 5,0 0,5 -5,0 z M 65,20 l 5,0 0,5 -5,0 z M 80,20 l 5,0 0,5 -5,0 z M 90,20 l 5,0 0,5 -5,0 z M 95,20 l 5,0 0,5 -5,0 z M 105,20 l 5,0 0,5 -5,0 z M 110,20 l 5,0 0,5 -5,0 z M 120,20 l 5,0 0,5 -5,0 z M 125,20 l 5,0 0,5 -5,0 z M 135,20 l 5,0 0,5 -5,0 z M 140,20 l 5,0 0,5 -5,0 z M 155,20 l 5,0 0,5 -5,0 z M 160,20 l 5,0 0,5 -5,0 z M 180,20 l 5,0 0,5 -5,0 z M 185,20 l 5,0 0,5 -5,0 z M 200,20 l 5,0 0,5 -5,0 z M 215,20 l 5,0 0,5 -5,0 z M 225,20 l 5,0 0,5 -5,0 z M 230,20 l 5,0 0,5 -5,0 z M 235,20 l 5,0 0,5 -5,0 z M 245,20 l 5,0 0,5 -5,0 z M 5,25 l 5,0 0,5 -5,0 z M 15,25 l 5,0 0,5 -5,0 z M 20,25 l 5,0 0,5 -5,0 z M 25,25 l 5,0 0,5 -5,0 z M 35,25 l 5,0 0,5 -5,0 z M 75,25 l 5,0 0,5 -5,0 z M 80,25 l 5,0 0,5 -5,0 z M 85,25 l 5,0 0,5 -5,0 z M 90,25 l 5,0 0,5 -5,0 z M 100,25 l 5,0 0,5 -5,0 z M 110,25 l 5,0 0,5 -5,0 z M 115,25 l 5,0 0,5 -5,0 z M 120,25 l 5,0 0,5 -5,0 z M 125,25 l 5,0 0,5 -5,0 z M 130,25 l 5,0 0,5 -5,0 z M 135,25 l 5,0 0,5 -5,0 z M 140,25 l 5,0 0,5 -5,0 z M 150,25 l 5,0 0,5 -5,0 z M 155,25 l 5,0 0,5 -5,0 z M 160,25 l 5,0 0,5 -5,0 z M 180,25 l 5,0 0,5 -5,0 z M 215,25 l 5,0 0,5 -5,0 z M 225,25 l 5,0 0,5 -5,0 z M 230,25 l 5,0 0,5 -5,0 z M 235,25 l 5,0 0,5 -5,0 z M 245,25 l 5,0 0,5 -5,0 z M 5,30 l 5,0 0,5 -5,0 z M 35,30 l 5,0 0,5 -5,0 z M 45,30 l 5,0 0,5 -5,0 z M 55,30 l 5,0 0,5 -5,0 z M 65,30 l 5,0 0,5 -5,0 z M 70,30 l 5,0 0,5 -5,0 z M 80,30 l 5,0 0,5 -5,0 z M 85,30 l 5,0 0,5 -5,0 z M 95,30 l 5,0 0,5 -5,0 z M 100,30 l 5,0 0,5 -5,0 z M 110,30 l 5,0 0,5 -5,0 z M 115,30 l 5,0 0,5 -5,0 z M 135,30 l 5,0 0,5 -5,0 z M 145,30 l 5,0 0,5 -5,0 z M 175,30 l 5,0 0,5 -5,0 z M 195,30 l 5,0 0,5 -5,0 z M 215,30 l 5,0 0,5 -5,0 z M 245,30 l 5,0 0,5 -5,0 z M 5,35 l 5,0 0,5 -5,0 z M 10,35 l 5,0 0,5 -5,0 z M 15,35 l 5,0 0,5 -5,0 z M 20,35 l 5,0 0,5 -5,0 z M 25,35 l 5,0 0,5 -5,0 z M 30,35 l 5,0 0,5 -5,0 z M 35,35 l 5,0 0,5 -5,0 z M 45,35 l 5,0 0,5 -5,0 z M 55,35 l 5,0 0,5 -5,0 z M 65,35 l 5,0 0,5 -5,0 z M 75,35 l 5,0 0,5 -5,0 z M 85,35 l 5,0 0,5 -5,0 z M 95,35 l 5,0 0,5 -5,0 z M 105,35 l 5,0 0,5 -5,0 z M 115,35 l 5,0 0,5 -5,0 z M 125,35 l 5,0 0,5 -5,0 z M 135,35 l 5,0 0,5 -5,0 z M 145,35 l 5,0 0,5 -5,0 z M 155,35 l 5,0 0,5 -5,0 z M 165,35 l 5,0 0,5 -5,0 z M 175,35 l 5,0 0,5 -5,0 z M 185,35 l 5,0 0,5 -5,0 z M 195,35 l 5,0 0,5 -5,0 z M 205,35 l 5,0 0,5 -5,0 z M 215,35 l 5,0 0,5 -5,0 z M 220,35 l 5,0 0,5 -5,0 z M 225,35 l 5,0 0,5 -5,0 z M 230,35 l 5,0 0,5 -5,0 z M 235,35 l 5,0 0,5 -5,0 z M 240,35 l 5,0 0,5 -5,0 z M 245,35 l 5,0 0,5 -5,0 z M 55,40 l 5,0 0,5 -5,0 z M 60,40 l 5,0 0,5 -5,0 z M 75,40 l 5,0 0,5 -5,0 z M 80,40 l 5,0 0,5 -5,0 z M 85,40 l 5,0 0,5 -5,0 z M 105,40 l 5,0 0,5 -5,0 z M 115,40 l 5,0 0,5 -5,0 z M 135,40 l 5,0 0,5 -5,0 z M 145,40 l 5,0 0,5 -5,0 z M 150,40 l 5,0 0,5 -5,0 z M 165,40 l 5,0 0,5 -5,0 z M 175,40 l 5,0 0,5 -5,0 z M 180,40 l 5,0 0,5 -5,0 z M 195,40 l 5,0 0,5 -5,0 z M 200,40 l 5,0 0,5 -5,0 z M 205,40 l 5,0 0,5 -5,0 z M 5,45 l 5,0 0,5 -5,0 z M 10,45 l 5,0 0,5 -5,0 z M 15,45 l 5,0 0,5 -5,0 z M 20,45 l 5,0 0,5 -5,0 z M 25,45 l 5,0 0,5 -5,0 z M 35,45 l 5,0 0,5 -5,0 z M 40,45 l 5,0 0,5 -5,0 z M 45,45 l 5,0 0,5 -5,0 z M 50,45 l 5,0 0,5 -5,0 z M 55,45 l 5,0 0,5 -5,0 z M 65,45 l 5,0 0,5 -5,0 z M 70,45 l 5,0 0,5 -5,0 z M 95,45 l 5,0 0,5 -5,0 z M 100,45 l 5,0 0,5 -5,0 z M 110,45 l 5,0 0,5 -5,0 z M 115,45 l 5,0 0,5 -5,0 z M 120,45 l 5,0 0,5 -5,0 z M 125,45 l 5,0 0,5 -5,0 z M 130,45 l 5,0 0,5 -5,0 z M 135,45 l 5,0 0,5 -5,0 z M 160,45 l 5,0 0,5 -5,0 z M 175,45 l 5,0 0,5 -5,0 z M 180,45 l 5,0 0,5 -5,0 z M 185,45 l 5,0 0,5 -5,0 z M 190,45 l 5,0 0,5 -5,0 z M 200,45 l 5,0 0,5 -5,0 z M 210,45 l 5,0 0,5 -5,0 z M 220,45 l 5,0 0,5 -5,0 z M 230,45 l 5,0 0,5 -5,0 z M 240,45 l 5,0 0,5 -5,0 z M 15,50 l 5,0 0,5 -5,0 z M 20,50 l 5,0 0,5 -5,0 z M 25,50 l 5,0 0,5 -5,0 z M 30,50 l 5,0 0,5 -5,0 z M 40,50 l 5,0 0,5 -5,0 z M 50,50 l 5,0 0,5 -5,0 z M 60,50 l 5,0 0,5 -5,0 z M 65,50 l 5,0 0,5 -5,0 z M 70,50 l 5,0 0,5 -5,0 z M 100,50 l 5,0 0,5 -5,0 z M 115,50 l 5,0 0,5 -5,0 z M 130,50 l 5,0 0,5 -5,0 z M 140,50 l 5,0 0,5 -5,0 z M 150,50 l 5,0 0,5 -5,0 z M 155,50 l 5,0 0,5 -5,0 z M 160,50 l 5,0 0,5 -5,0 z M 180,50 l 5,0 0,5 -5,0 z M 185,50 l 5,0 0,5 -5,0 z M 190,50 l 5,0 0,5 -5,0 z M 195,50 l 5,0 0,5 -5,0 z M 210,50 l 5,0 0,5 -5,0 z M 215,50 l 5,0 0,5 -5,0 z M 220,50 l 5,0 0,5 -5,0 z M 235,50 l 5,0 0,5 -5,0 z M 245,50 l 5,0 0,5 -5,0 z M 10,55 l 5,0 0,5 -5,0 z M 20,55 l 5,0 0,5 -5,0 z M 25,55 l 5,0 0,5 -5,0 z M 35,55 l 5,0 0,5 -5,0 z M 40,55 l 5,0 0,5 -5,0 z M 45,55 l 5,0 0,5 -5,0 z M 50,55 l 5,0 0,5 -5,0 z M 65,55 l 5,0 0,5 -5,0 z M 80,55 l 5,0 0,5 -5,0 z M 90,55 l 5,0 0,5 -5,0 z M 95,55 l 5,0 0,5 -5,0 z M 115,55 l 5,0 0,5 -5,0 z M 120,55 l 5,0 0,5 -5,0 z M 130,55 l 5,0 0,5 -5,0 z M 165,55 l 5,0 0,5 -5,0 z M 175,55 l 5,0 0,5 -5,0 z M 185,55 l 5,0 0,5 -5,0 z M 190,55 l 5,0 0,5 -5,0 z M 195,55 l 5,0 0,5 -5,0 z M 215,55 l 5,0 0,5 -5,0 z M 220,55 l 5,0 0,5 -5,0 z M 225,55 l 5,0 0,5 -5,0 z M 240,55 l 5,0 0,5 -5,0 z M 245,55 l 5,0 0,5 -5,0 z M 10,60 l 5,0 0,5 -5,0 z M 20,60 l 5,0 0,5 -5,0 z M 25,60 l 5,0 0,5 -5,0 z M 30,60 l 5,0 0,5 -5,0 z M 65,60 l 5,0 0,5 -5,0 z M 70,60 l 5,0 0,5 -5,0 z M 85,60 l 5,0 0,5 -5,0 z M 95,60 l 5,0 0,5 -5,0 z M 110,60 l 5,0 0,5 -5,0 z M 115,60 l 5,0 0,5 -5,0 z M 120,60 l 5,0 0,5 -5,0 z M 140,60 l 5,0 0,5 -5,0 z M 145,60 l 5,0 0,5 -5,0 z M 150,60 l 5,0 0,5 -5,0 z M 165,60 l 5,0 0,5 -5,0 z M 185,60 l 5,0 0,5 -5,0 z M 195,60 l 5,0 0,5 -5,0 z M 200,60 l 5,0 0,5 -5,0 z M 205,60 l 5,0 0,5 -5,0 z M 215,60 l 5,0 0,5 -5,0 z M 225,60 l 5,0 0,5 -5,0 z M 235,60 l 5,0 0,5 -5,0 z M 5,65 l 5,0 0,5 -5,0 z M 10,65 l 5,0 0,5 -5,0 z M 30,65 l 5,0 0,5 -5,0 z M 35,65 l 5,0 0,5 -5,0 z M 55,65 l 5,0 0,5 -5,0 z M 60,65 l 5,0 0,5 -5,0 z M 65,65 l 5,0 0,5 -5,0 z M 70,65 l 5,0 0,5 -5,0 z M 95,65 l 5,0 0,5 -5,0 z M 105,65 l 5,0 0,5 -5,0 z M 120,65 l 5,0 0,5 -5,0 z M 125,65 l 5,0 0,5 -5,0 z M 150,65 l 5,0 0,5 -5,0 z M 160,65 l 5,0 0,5 -5,0 z M 170,65 l 5,0 0,5 -5,0 z M 180,65 l 5,0 0,5 -5,0 z M 185,65 l 5,0 0,5 -5,0 z M 195,65 l 5,0 0,5 -5,0 z M 200,65 l 5,0 0,5 -5,0 z M 205,65 l 5,0 0,5 -5,0 z M 215,65 l 5,0 0,5 -5,0 z M 220,65 l 5,0 0,5 -5,0 z M 230,65 l 5,0 0,5 -5,0 z M 235,65 l 5,0 0,5 -5,0 z M 5,70 l 5,0 0,5 -5,0 z M 40,70 l 5,0 0,5 -5,0 z M 45,70 l 5,0 0,5 -5,0 z M 50,70 l 5,0 0,5 -5,0 z M 65,70 l 5,0 0,5 -5,0 z M 80,70 l 5,0 0,5 -5,0 z M 85,70 l 5,0 0,5 -5,0 z M 100,70 l 5,0 0,5 -5,0 z M 115,70 l 5,0 0,5 -5,0 z M 130,70 l 5,0 0,5 -5,0 z M 150,70 l 5,0 0,5 -5,0 z M 155,70 l 5,0 0,5 -5,0 z M 160,70 l 5,0 0,5 -5,0 z M 165,70 l 5,0 0,5 -5,0 z M 185,70 l 5,0 0,5 -5,0 z M 190,70 l 5,0 0,5 -5,0 z M 200,70 l 5,0 0,5 -5,0 z M 210,70 l 5,0 0,5 -5,0 z M 215,70 l 5,0 0,5 -5,0 z M 220,70 l 5,0 0,5 -5,0 z M 225,70 l 5,0 0,5 -5,0 z M 245,70 l 5,0 0,5 -5,0 z M 10,75 l 5,0 0,5 -5,0 z M 25,75 l 5,0 0,5 -5,0 z M 30,75 l 5,0 0,5 -5,0 z M 35,75 l 5,0 0,5 -5,0 z M 45,75 l 5,0 0,5 -5,0 z M 50,75 l 5,0 0,5 -5,0 z M 55,75 l 5,0 0,5 -5,0 z M 65,75 l 5,0 0,5 -5,0 z M 70,75 l 5,0 0,5 -5,0 z M 80,75 l 5,0 0,5 -5,0 z M 85,75 l 5,0 0,5 -5,0 z M 100,75 l 5,0 0,5 -5,0 z M 105,75 l 5,0 0,5 -5,0 z M 110,75 l 5,0 0,5 -5,0 z M 115,75 l 5,0 0,5 -5,0 z M 130,75 l 5,0 0,5 -5,0 z M 135,75 l 5,0 0,5 -5,0 z M 150,75 l 5,0 0,5 -5,0 z M 165,75 l 5,0 0,5 -5,0 z M 170,75 l 5,0 0,5 -5,0 z M 175,75 l 5,0 0,5 -5,0 z M 185,75 l 5,0 0,5 -5,0 z M 200,75 l 5,0 0,5 -5,0 z M 220,75 l 5,0 0,5 -5,0 z M 245,75 l 5,0 0,5 -5,0 z M 5,80 l 5,0 0,5 -5,0 z M 10,80 l 5,0 0,5 -5,0 z M 25,80 l 5,0 0,5 -5,0 z M 30,80 l 5,0 0,5 -5,0 z M 45,80 l 5,0 0,5 -5,0 z M 85,80 l 5,0 0,5 -5,0 z M 100,80 l 5,0 0,5 -5,0 z M 130,80 l 5,0 0,5 -5,0 z M 145,80 l 5,0 0,5 -5,0 z M 155,80 l 5,0 0,5 -5,0 z M 165,80 l 5,0 0,5 -5,0 z M 170,80 l 5,0 0,5 -5,0 z M 190,80 l 5,0 0,5 -5,0 z M 195,80 l 5,0 0,5 -5,0 z M 210,80 l 5,0 0,5 -5,0 z M 215,80 l 5,0 0,5 -5,0 z M 240,80 l 5,0 0,5 -5,0 z M 245,80 l 5,0 0,5 -5,0 z M 5,85 l 5,0 0,5 -5,0 z M 10,85 l 5,0 0,5 -5,0 z M 30,85 l 5,0 0,5 -5,0 z M 35,85 l 5,0 0,5 -5,0 z M 40,85 l 5,0 0,5 -5,0 z M 65,85 l 5,0 0,5 -5,0 z M 70,85 l 5,0 0,5 -5,0 z M 80,85 l 5,0 0,5 -5,0 z M 85,85 l 5,0 0,5 -5,0 z M 90,85 l 5,0 0,5 -5,0 z M 95,85 l 5,0 0,5 -5,0 z M 100,85 l 5,0 0,5 -5,0 z M 110,85 l 5,0 0,5 -5,0 z M 115,85 l 5,0 0,5 -5,0 z M 120,85 l 5,0 0,5 -5,0 z M 125,85 l 5,0 0,5 -5,0 z M 150,85 l 5,0 0,5 -5,0 z M 160,85 l 5,0 0,5 -5,0 z M 170,85 l 5,0 0,5 -5,0 z M 175,85 l 5,0 0,5 -5,0 z M 180,85 l 5,0 0,5 -5,0 z M 185,85 l 5,0 0,5 -5,0 z M 190,85 l 5,0 0,5 -5,0 z M 210,85 l 5,0 0,5 -5,0 z M 215,85 l 5,0 0,5 -5,0 z M 220,85 l 5,0 0,5 -5,0 z M 230,85 l 5,0 0,5 -5,0 z M 240,85 l 5,0 0,5 -5,0 z M 245,85 l 5,0 0,5 -5,0 z M 5,90 l 5,0 0,5 -5,0 z M 15,90 l 5,0 0,5 -5,0 z M 20,90 l 5,0 0,5 -5,0 z M 60,90 l 5,0 0,5 -5,0 z M 70,90 l 5,0 0,5 -5,0 z M 85,90 l 5,0 0,5 -5,0 z M 100,90 l 5,0 0,5 -5,0 z M 110,90 l 5,0 0,5 -5,0 z M 120,90 l 5,0 0,5 -5,0 z M 125,90 l 5,0 0,5 -5,0 z M 130,90 l 5,0 0,5 -5,0 z M 140,90 l 5,0 0,5 -5,0 z M 150,90 l 5,0 0,5 -5,0 z M 155,90 l 5,0 0,5 -5,0 z M 160,90 l 5,0 0,5 -5,0 z M 180,90 l 5,0 0,5 -5,0 z M 190,90 l 5,0 0,5 -5,0 z M 215,90 l 5,0 0,5 -5,0 z M 220,90 l 5,0 0,5 -5,0 z M 225,90 l 5,0 0,5 -5,0 z M 230,90 l 5,0 0,5 -5,0 z M 235,90 l 5,0 0,5 -5,0 z M 245,90 l 5,0 0,5 -5,0 z M 15,95 l 5,0 0,5 -5,0 z M 30,95 l 5,0 0,5 -5,0 z M 35,95 l 5,0 0,5 -5,0 z M 45,95 l 5,0 0,5 -5,0 z M 55,95 l 5,0 0,5 -5,0 z M 60,95 l 5,0 0,5 -5,0 z M 65,95 l 5,0 0,5 -5,0 z M 90,95 l 5,0 0,5 -5,0 z M 110,95 l 5,0 0,5 -5,0 z M 140,95 l 5,0 0,5 -5,0 z M 145,95 l 5,0 0,5 -5,0 z M 170,95 l 5,0 0,5 -5,0 z M 175,95 l 5,0 0,5 -5,0 z M 190,95 l 5,0 0,5 -5,0 z M 205,95 l 5,0 0,5 -5,0 z M 210,95 l 5,0 0,5 -5,0 z M 220,95 l 5,0 0,5 -5,0 z M 225,95 l 5,0 0,5 -5,0 z M 235,95 l 5,0 0,5 -5,0 z M 245,95 l 5,0 0,5 -5,0 z M 10,100 l 5,0 0,5 -5,0 z M 15,100 l 5,0 0,5 -5,0 z M 20,100 l 5,0 0,5 -5,0 z M 30,100 l 5,0 0,5 -5,0 z M 45,100 l 5,0 0,5 -5,0 z M 50,100 l 5,0 0,5 -5,0 z M 80,100 l 5,0 0,5 -5,0 z M 90,100 l 5,0 0,5 -5,0 z M 140,100 l 5,0 0,5 -5,0 z M 145,100 l 5,0 0,5 -5,0 z M 155,100 l 5,0 0,5 -5,0 z M 175,100 l 5,0 0,5 -5,0 z M 190,100 l 5,0 0,5 -5,0 z M 200,100 l 5,0 0,5 -5,0 z M 210,100 l 5,0 0,5 -5,0 z M 215,100 l 5,0 0,5 -5,0 z M 220,100 l 5,0 0,5 -5,0 z M 235,100 l 5,0 0,5 -5,0 z M 245,100 l 5,0 0,5 -5,0 z M 10,105 l 5,0 0,5 -5,0 z M 25,105 l 5,0 0,5 -5,0 z M 35,105 l 5,0 0,5 -5,0 z M 40,105 l 5,0 0,5 -5,0 z M 45,105 l 5,0 0,5 -5,0 z M 50,105 l 5,0 0,5 -5,0 z M 60,105 l 5,0 0,5 -5,0 z M 80,105 l 5,0 0,5 -5,0 z M 85,105 l 5,0 0,5 -5,0 z M 95,105 l 5,0 0,5 -5,0 z M 105,105 l 5,0 0,5 -5,0 z M 110,105 l 5,0 0,5 -5,0 z M 125,105 l 5,0 0,5 -5,0 z M 130,105 l 5,0 0,5 -5,0 z M 135,105 l 5,0 0,5 -5,0 z M 160,105 l 5,0 0,5 -5,0 z M 175,105 l 5,0 0,5 -5,0 z M 185,105 l 5,0 0,5 -5,0 z M 195,105 l 5,0 0,5 -5,0 z M 235,105 l 5,0 0,5 -5,0 z M 240,105 l 5,0 0,5 -5,0 z M 20,110 l 5,0 0,5 -5,0 z M 25,110 l 5,0 0,5 -5,0 z M 45,110 l 5,0 0,5 -5,0 z M 50,110 l 5,0 0,5 -5,0 z M 60,110 l 5,0 0,5 -5,0 z M 85,110 l 5,0 0,5 -5,0 z M 95,110 l 5,0 0,5 -5,0 z M 100,110 l 5,0 0,5 -5,0 z M 140,110 l 5,0 0,5 -5,0 z M 145,110 l 5,0 0,5 -5,0 z M 150,110 l 5,0 0,5 -5,0 z M 155,110 l 5,0 0,5 -5,0 z M 165,110 l 5,0 0,5 -5,0 z M 185,110 l 5,0 0,5 -5,0 z M 190,110 l 5,0 0,5 -5,0 z M 200,110 l 5,0 0,5 -5,0 z M 210,110 l 5,0 0,5 -5,0 z M 235,110 l 5,0 0,5 -5,0 z M 245,110 l 5,0 0,5 -5,0 z M 10,115 l 5,0 0,5 -5,0 z M 15,115 l 5,0 0,5 -5,0 z M 20,115 l 5,0 0,5 -5,0 z M 25,115 l 5,0 0,5 -5,0 z M 30,115 l 5,0 0,5 -5,0 z M 35,115 l 5,0 0,5 -5,0 z M 40,115 l 5,0 0,5 -5,0 z M 45,115 l 5,0 0,5 -5,0 z M 70,115 l 5,0 0,5 -5,0 z M 80,115 l 5,0 0,5 -5,0 z M 95,115 l 5,0 0,5 -5,0 z M 105,115 l 5,0 0,5 -5,0 z M 110,115 l 5,0 0,5 -5,0 z M 115,115 l 5,0 0,5 -5,0 z M 120,115 l 5,0 0,5 -5,0 z M 125,115 l 5,0 0,5 -5,0 z M 130,115 l 5,0 0,5 -5,0 z M 135,115 l 5,0 0,5 -5,0 z M 165,115 l 5,0 0,5 -5,0 z M 175,115 l 5,0 0,5 -5,0 z M 180,115 l 5,0 0,5 -5,0 z M 200,115 l 5,0 0,5 -5,0 z M 205,115 l 5,0 0,5 -5,0 z M 210,115 l 5,0 0,5 -5,0 z M 215,115 l 5,0 0,5 -5,0 z M 220,115 l 5,0 0,5 -5,0 z M 225,115 l 5,0 0,5 -5,0 z M 240,115 l 5,0 0,5 -5,0 z M 10,120 l 5,0 0,5 -5,0 z M 20,120 l 5,0 0,5 -5,0 z M 25,120 l 5,0 0,5 -5,0 z M 45,120 l 5,0 0,5 -5,0 z M 50,120 l 5,0 0,5 -5,0 z M 60,120 l 5,0 0,5 -5,0 z M 85,120 l 5,0 0,5 -5,0 z M 90,120 l 5,0 0,5 -5,0 z M 95,120 l 5,0 0,5 -5,0 z M 100,120 l 5,0 0,5 -5,0 z M 105,120 l 5,0 0,5 -5,0 z M 110,120 l 5,0 0,5 -5,0 z M 115,120 l 5,0 0,5 -5,0 z M 135,120 l 5,0 0,5 -5,0 z M 140,120 l 5,0 0,5 -5,0 z M 145,120 l 5,0 0,5 -5,0 z M 150,120 l 5,0 0,5 -5,0 z M 165,120 l 5,0 0,5 -5,0 z M 190,120 l 5,0 0,5 -5,0 z M 200,120 l 5,0 0,5 -5,0 z M 205,120 l 5,0 0,5 -5,0 z M 225,120 l 5,0 0,5 -5,0 z M 240,120 l 5,0 0,5 -5,0 z M 245,120 l 5,0 0,5 -5,0 z M 5,125 l 5,0 0,5 -5,0 z M 15,125 l 5,0 0,5 -5,0 z M 25,125 l 5,0 0,5 -5,0 z M 35,125 l 5,0 0,5 -5,0 z M 45,125 l 5,0 0,5 -5,0 z M 50,125 l 5,0 0,5 -5,0 z M 55,125 l 5,0 0,5 -5,0 z M 65,125 l 5,0 0,5 -5,0 z M 80,125 l 5,0 0,5 -5,0 z M 90,125 l 5,0 0,5 -5,0 z M 105,125 l 5,0 0,5 -5,0 z M 110,125 l 5,0 0,5 -5,0 z M 115,125 l 5,0 0,5 -5,0 z M 125,125 l 5,0 0,5 -5,0 z M 135,125 l 5,0 0,5 -5,0 z M 150,125 l 5,0 0,5 -5,0 z M 160,125 l 5,0 0,5 -5,0 z M 175,125 l 5,0 0,5 -5,0 z M 180,125 l 5,0 0,5 -5,0 z M 185,125 l 5,0 0,5 -5,0 z M 200,125 l 5,0 0,5 -5,0 z M 205,125 l 5,0 0,5 -5,0 z M 215,125 l 5,0 0,5 -5,0 z M 225,125 l 5,0 0,5 -5,0 z M 230,125 l 5,0 0,5 -5,0 z M 240,125 l 5,0 0,5 -5,0 z M 245,125 l 5,0 0,5 -5,0 z M 5,130 l 5,0 0,5 -5,0 z M 20,130 l 5,0 0,5 -5,0 z M 25,130 l 5,0 0,5 -5,0 z M 45,130 l 5,0 0,5 -5,0 z M 55,130 l 5,0 0,5 -5,0 z M 60,130 l 5,0 0,5 -5,0 z M 65,130 l 5,0 0,5 -5,0 z M 80,130 l 5,0 0,5 -5,0 z M 90,130 l 5,0 0,5 -5,0 z M 95,130 l 5,0 0,5 -5,0 z M 115,130 l 5,0 0,5 -5,0 z M 135,130 l 5,0 0,5 -5,0 z M 140,130 l 5,0 0,5 -5,0 z M 145,130 l 5,0 0,5 -5,0 z M 150,130 l 5,0 0,5 -5,0 z M 155,130 l 5,0 0,5 -5,0 z M 160,130 l 5,0 0,5 -5,0 z M 200,130 l 5,0 0,5 -5,0 z M 205,130 l 5,0 0,5 -5,0 z M 225,130 l 5,0 0,5 -5,0 z M 230,130 l 5,0 0,5 -5,0 z M 235,130 l 5,0 0,5 -5,0 z M 245,130 l 5,0 0,5 -5,0 z M 5,135 l 5,0 0,5 -5,0 z M 15,135 l 5,0 0,5 -5,0 z M 25,135 l 5,0 0,5 -5,0 z M 30,135 l 5,0 0,5 -5,0 z M 35,135 l 5,0 0,5 -5,0 z M 40,135 l 5,0 0,5 -5,0 z M 45,135 l 5,0 0,5 -5,0 z M 50,135 l 5,0 0,5 -5,0 z M 55,135 l 5,0 0,5 -5,0 z M 70,135 l 5,0 0,5 -5,0 z M 75,135 l 5,0 0,5 -5,0 z M 105,135 l 5,0 0,5 -5,0 z M 115,135 l 5,0 0,5 -5,0 z M 120,135 l 5,0 0,5 -5,0 z M 125,135 l 5,0 0,5 -5,0 z M 130,135 l 5,0 0,5 -5,0 z M 135,135 l 5,0 0,5 -5,0 z M 140,135 l 5,0 0,5 -5,0 z M 145,135 l 5,0 0,5 -5,0 z M 160,135 l 5,0 0,5 -5,0 z M 165,135 l 5,0 0,5 -5,0 z M 170,135 l 5,0 0,5 -5,0 z M 175,135 l 5,0 0,5 -5,0 z M 180,135 l 5,0 0,5 -5,0 z M 190,135 l 5,0 0,5 -5,0 z M 195,135 l 5,0 0,5 -5,0 z M 205,135 l 5,0 0,5 -5,0 z M 210,135 l 5,0 0,5 -5,0 z M 215,135 l 5,0 0,5 -5,0 z M 220,135 l 5,0 0,5 -5,0 z M 225,135 l 5,0 0,5 -5,0 z M 245,135 l 5,0 0,5 -5,0 z M 5,140 l 5,0 0,5 -5,0 z M 15,140 l 5,0 0,5 -5,0 z M 20,140 l 5,0 0,5 -5,0 z M 25,140 l 5,0 0,5 -5,0 z M 30,140 l 5,0 0,5 -5,0 z M 50,140 l 5,0 0,5 -5,0 z M 55,140 l 5,0 0,5 -5,0 z M 60,140 l 5,0 0,5 -5,0 z M 75,140 l 5,0 0,5 -5,0 z M 80,140 l 5,0 0,5 -5,0 z M 85,140 l 5,0 0,5 -5,0 z M 100,140 l 5,0 0,5 -5,0 z M 105,140 l 5,0 0,5 -5,0 z M 110,140 l 5,0 0,5 -5,0 z M 125,140 l 5,0 0,5 -5,0 z M 130,140 l 5,0 0,5 -5,0 z M 135,140 l 5,0 0,5 -5,0 z M 145,140 l 5,0 0,5 -5,0 z M 150,140 l 5,0 0,5 -5,0 z M 155,140 l 5,0 0,5 -5,0 z M 160,140 l 5,0 0,5 -5,0 z M 165,140 l 5,0 0,5 -5,0 z M 170,140 l 5,0 0,5 -5,0 z M 190,140 l 5,0 0,5 -5,0 z M 195,140 l 5,0 0,5 -5,0 z M 205,140 l 5,0 0,5 -5,0 z M 210,140 l 5,0 0,5 -5,0 z M 215,140 l 5,0 0,5 -5,0 z M 225,140 l 5,0 0,5 -5,0 z M 235,140 l 5,0 0,5 -5,0 z M 245,140 l 5,0 0,5 -5,0 z M 5,145 l 5,0 0,5 -5,0 z M 10,145 l 5,0 0,5 -5,0 z M 20,145 l 5,0 0,5 -5,0 z M 30,145 l 5,0 0,5 -5,0 z M 35,145 l 5,0 0,5 -5,0 z M 50,145 l 5,0 0,5 -5,0 z M 60,145 l 5,0 0,5 -5,0 z M 70,145 l 5,0 0,5 -5,0 z M 75,145 l 5,0 0,5 -5,0 z M 85,145 l 5,0 0,5 -5,0 z M 95,145 l 5,0 0,5 -5,0 z M 105,145 l 5,0 0,5 -5,0 z M 110,145 l 5,0 0,5 -5,0 z M 130,145 l 5,0 0,5 -5,0 z M 150,145 l 5,0 0,5 -5,0 z M 170,145 l 5,0 0,5 -5,0 z M 175,145 l 5,0 0,5 -5,0 z M 180,145 l 5,0 0,5 -5,0 z M 185,145 l 5,0 0,5 -5,0 z M 195,145 l 5,0 0,5 -5,0 z M 240,145 l 5,0 0,5 -5,0 z M 245,145 l 5,0 0,5 -5,0 z M 15,150 l 5,0 0,5 -5,0 z M 20,150 l 5,0 0,5 -5,0 z M 30,150 l 5,0 0,5 -5,0 z M 40,150 l 5,0 0,5 -5,0 z M 50,150 l 5,0 0,5 -5,0 z M 60,150 l 5,0 0,5 -5,0 z M 85,150 l 5,0 0,5 -5,0 z M 120,150 l 5,0 0,5 -5,0 z M 125,150 l 5,0 0,5 -5,0 z M 130,150 l 5,0 0,5 -5,0 z M 150,150 l 5,0 0,5 -5,0 z M 155,150 l 5,0 0,5 -5,0 z M 165,150 l 5,0 0,5 -5,0 z M 180,150 l 5,0 0,5 -5,0 z M 185,150 l 5,0 0,5 -5,0 z M 200,150 l 5,0 0,5 -5,0 z M 205,150 l 5,0 0,5 -5,0 z M 210,150 l 5,0 0,5 -5,0 z M 220,150 l 5,0 0,5 -5,0 z M 230,150 l 5,0 0,5 -5,0 z M 240,150 l 5,0 0,5 -5,0 z M 245,150 l 5,0 0,5 -5,0 z M 15,155 l 5,0 0,5 -5,0 z M 35,155 l 5,0 0,5 -5,0 z M 40,155 l 5,0 0,5 -5,0 z M 45,155 l 5,0 0,5 -5,0 z M 75,155 l 5,0 0,5 -5,0 z M 100,155 l 5,0 0,5 -5,0 z M 130,155 l 5,0 0,5 -5,0 z M 140,155 l 5,0 0,5 -5,0 z M 160,155 l 5,0 0,5 -5,0 z M 165,155 l 5,0 0,5 -5,0 z M 170,155 l 5,0 0,5 -5,0 z M 175,155 l 5,0 0,5 -5,0 z M 180,155 l 5,0 0,5 -5,0 z M 185,155 l 5,0 0,5 -5,0 z M 190,155 l 5,0 0,5 -5,0 z M 195,155 l 5,0 0,5 -5,0 z M 200,155 l 5,0 0,5 -5,0 z M 205,155 l 5,0 0,5 -5,0 z M 215,155 l 5,0 0,5 -5,0 z M 240,155 l 5,0 0,5 -5,0 z M 10,160 l 5,0 0,5 -5,0 z M 15,160 l 5,0 0,5 -5,0 z M 50,160 l 5,0 0,5 -5,0 z M 115,160 l 5,0 0,5 -5,0 z M 120,160 l 5,0 0,5 -5,0 z M 125,160 l 5,0 0,5 -5,0 z M 145,160 l 5,0 0,5 -5,0 z M 150,160 l 5,0 0,5 -5,0 z M 165,160 l 5,0 0,5 -5,0 z M 170,160 l 5,0 0,5 -5,0 z M 175,160 l 5,0 0,5 -5,0 z M 190,160 l 5,0 0,5 -5,0 z M 200,160 l 5,0 0,5 -5,0 z M 225,160 l 5,0 0,5 -5,0 z M 240,160 l 5,0 0,5 -5,0 z M 5,165 l 5,0 0,5 -5,0 z M 10,165 l 5,0 0,5 -5,0 z M 20,165 l 5,0 0,5 -5,0 z M 35,165 l 5,0 0,5 -5,0 z M 40,165 l 5,0 0,5 -5,0 z M 45,165 l 5,0 0,5 -5,0 z M 50,165 l 5,0 0,5 -5,0 z M 60,165 l 5,0 0,5 -5,0 z M 65,165 l 5,0 0,5 -5,0 z M 90,165 l 5,0 0,5 -5,0 z M 95,165 l 5,0 0,5 -5,0 z M 110,165 l 5,0 0,5 -5,0 z M 120,165 l 5,0 0,5 -5,0 z M 135,165 l 5,0 0,5 -5,0 z M 140,165 l 5,0 0,5 -5,0 z M 150,165 l 5,0 0,5 -5,0 z M 155,165 l 5,0 0,5 -5,0 z M 160,165 l 5,0 0,5 -5,0 z M 185,165 l 5,0 0,5 -5,0 z M 190,165 l 5,0 0,5 -5,0 z M 195,165 l 5,0 0,5 -5,0 z M 200,165 l 5,0 0,5 -5,0 z M 230,165 l 5,0 0,5 -5,0 z M 240,165 l 5,0 0,5 -5,0 z M 5,170 l 5,0 0,5 -5,0 z M 10,170 l 5,0 0,5 -5,0 z M 15,170 l 5,0 0,5 -5,0 z M 20,170 l 5,0 0,5 -5,0 z M 30,170 l 5,0 0,5 -5,0 z M 40,170 l 5,0 0,5 -5,0 z M 45,170 l 5,0 0,5 -5,0 z M 50,170 l 5,0 0,5 -5,0 z M 55,170 l 5,0 0,5 -5,0 z M 60,170 l 5,0 0,5 -5,0 z M 70,170 l 5,0 0,5 -5,0 z M 85,170 l 5,0 0,5 -5,0 z M 95,170 l 5,0 0,5 -5,0 z M 110,170 l 5,0 0,5 -5,0 z M 125,170 l 5,0 0,5 -5,0 z M 135,170 l 5,0 0,5 -5,0 z M 140,170 l 5,0 0,5 -5,0 z M 155,170 l 5,0 0,5 -5,0 z M 160,170 l 5,0 0,5 -5,0 z M 165,170 l 5,0 0,5 -5,0 z M 180,170 l 5,0 0,5 -5,0 z M 190,170 l 5,0 0,5 -5,0 z M 210,170 l 5,0 0,5 -5,0 z M 225,170 l 5,0 0,5 -5,0 z M 235,170 l 5,0 0,5 -5,0 z M 240,170 l 5,0 0,5 -5,0 z M 5,175 l 5,0 0,5 -5,0 z M 15,175 l 5,0 0,5 -5,0 z M 20,175 l 5,0 0,5 -5,0 z M 35,175 l 5,0 0,5 -5,0 z M 40,175 l 5,0 0,5 -5,0 z M 45,175 l 5,0 0,5 -5,0 z M 50,175 l 5,0 0,5 -5,0 z M 55,175 l 5,0 0,5 -5,0 z M 60,175 l 5,0 0,5 -5,0 z M 65,175 l 5,0 0,5 -5,0 z M 95,175 l 5,0 0,5 -5,0 z M 115,175 l 5,0 0,5 -5,0 z M 125,175 l 5,0 0,5 -5,0 z M 145,175 l 5,0 0,5 -5,0 z M 155,175 l 5,0 0,5 -5,0 z M 160,175 l 5,0 0,5 -5,0 z M 170,175 l 5,0 0,5 -5,0 z M 175,175 l 5,0 0,5 -5,0 z M 180,175 l 5,0 0,5 -5,0 z M 195,175 l 5,0 0,5 -5,0 z M 200,175 l 5,0 0,5 -5,0 z M 210,175 l 5,0 0,5 -5,0 z M 215,175 l 5,0 0,5 -5,0 z M 225,175 l 5,0 0,5 -5,0 z M 240,175 l 5,0 0,5 -5,0 z M 245,175 l 5,0 0,5 -5,0 z M 5,180 l 5,0 0,5 -5,0 z M 20,180 l 5,0 0,5 -5,0 z M 25,180 l 5,0 0,5 -5,0 z M 30,180 l 5,0 0,5 -5,0 z M 45,180 l 5,0 0,5 -5,0 z M 70,180 l 5,0 0,5 -5,0 z M 80,180 l 5,0 0,5 -5,0 z M 85,180 l 5,0 0,5 -5,0 z M 95,180 l 5,0 0,5 -5,0 z M 100,180 l 5,0 0,5 -5,0 z M 125,180 l 5,0 0,5 -5,0 z M 135,180 l 5,0 0,5 -5,0 z M 140,180 l 5,0 0,5 -5,0 z M 145,180 l 5,0 0,5 -5,0 z M 195,180 l 5,0 0,5 -5,0 z M 215,180 l 5,0 0,5 -5,0 z M 230,180 l 5,0 0,5 -5,0 z M 240,180 l 5,0 0,5 -5,0 z M 245,180 l 5,0 0,5 -5,0 z M 5,185 l 5,0 0,5 -5,0 z M 10,185 l 5,0 0,5 -5,0 z M 15,185 l 5,0 0,5 -5,0 z M 20,185 l 5,0 0,5 -5,0 z M 25,185 l 5,0 0,5 -5,0 z M 30,185 l 5,0 0,5 -5,0 z M 35,185 l 5,0 0,5 -5,0 z M 45,185 l 5,0 0,5 -5,0 z M 50,185 l 5,0 0,5 -5,0 z M 65,185 l 5,0 0,5 -5,0 z M 85,185 l 5,0 0,5 -5,0 z M 90,185 l 5,0 0,5 -5,0 z M 95,185 l 5,0 0,5 -5,0 z M 105,185 l 5,0 0,5 -5,0 z M 110,185 l 5,0 0,5 -5,0 z M 115,185 l 5,0 0,5 -5,0 z M 130,185 l 5,0 0,5 -5,0 z M 135,185 l 5,0 0,5 -5,0 z M 150,185 l 5,0 0,5 -5,0 z M 155,185 l 5,0 0,5 -5,0 z M 160,185 l 5,0 0,5 -5,0 z M 175,185 l 5,0 0,5 -5,0 z M 180,185 l 5,0 0,5 -5,0 z M 185,185 l 5,0 0,5 -5,0 z M 195,185 l 5,0 0,5 -5,0 z M 205,185 l 5,0 0,5 -5,0 z M 215,185 l 5,0 0,5 -5,0 z M 235,185 l 5,0 0,5 -5,0 z M 245,185 l 5,0 0,5 -5,0 z M 5,190 l 5,0 0,5 -5,0 z M 15,190 l 5,0 0,5 -5,0 z M 20,190 l 5,0 0,5 -5,0 z M 30,190 l 5,0 0,5 -5,0 z M 40,190 l 5,0 0,5 -5,0 z M 45,190 l 5,0 0,5 -5,0 z M 50,190 l 5,0 0,5 -5,0 z M 60,190 l 5,0 0,5 -5,0 z M 70,190 l 5,0 0,5 -5,0 z M 80,190 l 5,0 0,5 -5,0 z M 85,190 l 5,0 0,5 -5,0 z M 95,190 l 5,0 0,5 -5,0 z M 100,190 l 5,0 0,5 -5,0 z M 110,190 l 5,0 0,5 -5,0 z M 120,190 l 5,0 0,5 -5,0 z M 125,190 l 5,0 0,5 -5,0 z M 140,190 l 5,0 0,5 -5,0 z M 150,190 l 5,0 0,5 -5,0 z M 155,190 l 5,0 0,5 -5,0 z M 165,190 l 5,0 0,5 -5,0 z M 190,190 l 5,0 0,5 -5,0 z M 200,190 l 5,0 0,5 -5,0 z M 215,190 l 5,0 0,5 -5,0 z M 220,190 l 5,0 0,5 -5,0 z M 230,190 l 5,0 0,5 -5,0 z M 235,190 l 5,0 0,5 -5,0 z M 240,190 l 5,0 0,5 -5,0 z M 245,190 l 5,0 0,5 -5,0 z M 10,195 l 5,0 0,5 -5,0 z M 30,195 l 5,0 0,5 -5,0 z M 35,195 l 5,0 0,5 -5,0 z M 40,195 l 5,0 0,5 -5,0 z M 45,195 l 5,0 0,5 -5,0 z M 55,195 l 5,0 0,5 -5,0 z M 70,195 l 5,0 0,5 -5,0 z M 80,195 l 5,0 0,5 -5,0 z M 85,195 l 5,0 0,5 -5,0 z M 95,195 l 5,0 0,5 -5,0 z M 100,195 l 5,0 0,5 -5,0 z M 120,195 l 5,0 0,5 -5,0 z M 140,195 l 5,0 0,5 -5,0 z M 165,195 l 5,0 0,5 -5,0 z M 170,195 l 5,0 0,5 -5,0 z M 175,195 l 5,0 0,5 -5,0 z M 180,195 l 5,0 0,5 -5,0 z M 185,195 l 5,0 0,5 -5,0 z M 190,195 l 5,0 0,5 -5,0 z M 200,195 l 5,0 0,5 -5,0 z M 210,195 l 5,0 0,5 -5,0 z M 215,195 l 5,0 0,5 -5,0 z M 220,195 l 5,0 0,5 -5,0 z M 225,195 l 5,0 0,5 -5,0 z M 10,200 l 5,0 0,5 -5,0 z M 15,200 l 5,0 0,5 -5,0 z M 20,200 l 5,0 0,5 -5,0 z M 40,200 l 5,0 0,5 -5,0 z M 45,200 l 5,0 0,5 -5,0 z M 50,200 l 5,0 0,5 -5,0 z M 60,200 l 5,0 0,5 -5,0 z M 70,200 l 5,0 0,5 -5,0 z M 75,200 l 5,0 0,5 -5,0 z M 85,200 l 5,0 0,5 -5,0 z M 100,200 l 5,0 0,5 -5,0 z M 105,200 l 5,0 0,5 -5,0 z M 110,200 l 5,0 0,5 -5,0 z M 120,200 l 5,0 0,5 -5,0 z M 130,200 l 5,0 0,5 -5,0 z M 135,200 l 5,0 0,5 -5,0 z M 140,200 l 5,0 0,5 -5,0 z M 165,200 l 5,0 0,5 -5,0 z M 175,200 l 5,0 0,5 -5,0 z M 205,200 l 5,0 0,5 -5,0 z M 210,200 l 5,0 0,5 -5,0 z M 215,200 l 5,0 0,5 -5,0 z M 225,200 l 5,0 0,5 -5,0 z M 240,200 l 5,0 0,5 -5,0 z M 245,200 l 5,0 0,5 -5,0 z M 5,205 l 5,0 0,5 -5,0 z M 10,205 l 5,0 0,5 -5,0 z M 15,205 l 5,0 0,5 -5,0 z M 35,205 l 5,0 0,5 -5,0 z M 45,205 l 5,0 0,5 -5,0 z M 50,205 l 5,0 0,5 -5,0 z M 65,205 l 5,0 0,5 -5,0 z M 70,205 l 5,0 0,5 -5,0 z M 80,205 l 5,0 0,5 -5,0 z M 85,205 l 5,0 0,5 -5,0 z M 90,205 l 5,0 0,5 -5,0 z M 95,205 l 5,0 0,5 -5,0 z M 110,205 l 5,0 0,5 -5,0 z M 115,205 l 5,0 0,5 -5,0 z M 120,205 l 5,0 0,5 -5,0 z M 125,205 l 5,0 0,5 -5,0 z M 130,205 l 5,0 0,5 -5,0 z M 135,205 l 5,0 0,5 -5,0 z M 160,205 l 5,0 0,5 -5,0 z M 170,205 l 5,0 0,5 -5,0 z M 175,205 l 5,0 0,5 -5,0 z M 180,205 l 5,0 0,5 -5,0 z M 185,205 l 5,0 0,5 -5,0 z M 190,205 l 5,0 0,5 -5,0 z M 205,205 l 5,0 0,5 -5,0 z M 210,205 l 5,0 0,5 -5,0 z M 215,205 l 5,0 0,5 -5,0 z M 220,205 l 5,0 0,5 -5,0 z M 225,205 l 5,0 0,5 -5,0 z M 230,205 l 5,0 0,5 -5,0 z M 240,205 l 5,0 0,5 -5,0 z M 245,205 l 5,0 0,5 -5,0 z M 45,210 l 5,0 0,5 -5,0 z M 60,210 l 5,0 0,5 -5,0 z M 80,210 l 5,0 0,5 -5,0 z M 90,210 l 5,0 0,5 -5,0 z M 105,210 l 5,0 0,5 -5,0 z M 110,210 l 5,0 0,5 -5,0 z M 115,210 l 5,0 0,5 -5,0 z M 135,210 l 5,0 0,5 -5,0 z M 140,210 l 5,0 0,5 -5,0 z M 145,210 l 5,0 0,5 -5,0 z M 150,210 l 5,0 0,5 -5,0 z M 155,210 l 5,0 0,5 -5,0 z M 185,210 l 5,0 0,5 -5,0 z M 190,210 l 5,0 0,5 -5,0 z M 200,210 l 5,0 0,5 -5,0 z M 205,210 l 5,0 0,5 -5,0 z M 225,210 l 5,0 0,5 -5,0 z M 245,210 l 5,0 0,5 -5,0 z M 5,215 l 5,0 0,5 -5,0 z M 10,215 l 5,0 0,5 -5,0 z M 15,215 l 5,0 0,5 -5,0 z M 20,215 l 5,0 0,5 -5,0 z M 25,215 l 5,0 0,5 -5,0 z M 30,215 l 5,0 0,5 -5,0 z M 35,215 l 5,0 0,5 -5,0 z M 45,215 l 5,0 0,5 -5,0 z M 55,215 l 5,0 0,5 -5,0 z M 65,215 l 5,0 0,5 -5,0 z M 70,215 l 5,0 0,5 -5,0 z M 75,215 l 5,0 0,5 -5,0 z M 80,215 l 5,0 0,5 -5,0 z M 85,215 l 5,0 0,5 -5,0 z M 100,215 l 5,0 0,5 -5,0 z M 115,215 l 5,0 0,5 -5,0 z M 125,215 l 5,0 0,5 -5,0 z M 135,215 l 5,0 0,5 -5,0 z M 140,215 l 5,0 0,5 -5,0 z M 150,215 l 5,0 0,5 -5,0 z M 155,215 l 5,0 0,5 -5,0 z M 170,215 l 5,0 0,5 -5,0 z M 175,215 l 5,0 0,5 -5,0 z M 180,215 l 5,0 0,5 -5,0 z M 195,215 l 5,0 0,5 -5,0 z M 205,215 l 5,0 0,5 -5,0 z M 215,215 l 5,0 0,5 -5,0 z M 225,215 l 5,0 0,5 -5,0 z M 240,215 l 5,0 0,5 -5,0 z M 245,215 l 5,0 0,5 -5,0 z M 5,220 l 5,0 0,5 -5,0 z M 35,220 l 5,0 0,5 -5,0 z M 60,220 l 5,0 0,5 -5,0 z M 75,220 l 5,0 0,5 -5,0 z M 80,220 l 5,0 0,5 -5,0 z M 85,220 l 5,0 0,5 -5,0 z M 105,220 l 5,0 0,5 -5,0 z M 110,220 l 5,0 0,5 -5,0 z M 115,220 l 5,0 0,5 -5,0 z M 135,220 l 5,0 0,5 -5,0 z M 150,220 l 5,0 0,5 -5,0 z M 170,220 l 5,0 0,5 -5,0 z M 175,220 l 5,0 0,5 -5,0 z M 180,220 l 5,0 0,5 -5,0 z M 205,220 l 5,0 0,5 -5,0 z M 225,220 l 5,0 0,5 -5,0 z M 230,220 l 5,0 0,5 -5,0 z M 5,225 l 5,0 0,5 -5,0 z M 15,225 l 5,0 0,5 -5,0 z M 20,225 l 5,0 0,5 -5,0 z M 25,225 l 5,0 0,5 -5,0 z M 35,225 l 5,0 0,5 -5,0 z M 45,225 l 5,0 0,5 -5,0 z M 50,225 l 5,0 0,5 -5,0 z M 55,225 l 5,0 0,5 -5,0 z M 60,225 l 5,0 0,5 -5,0 z M 65,225 l 5,0 0,5 -5,0 z M 70,225 l 5,0 0,5 -5,0 z M 75,225 l 5,0 0,5 -5,0 z M 80,225 l 5,0 0,5 -5,0 z M 105,225 l 5,0 0,5 -5,0 z M 115,225 l 5,0 0,5 -5,0 z M 120,225 l 5,0 0,5 -5,0 z M 125,225 l 5,0 0,5 -5,0 z M 130,225 l 5,0 0,5 -5,0 z M 135,225 l 5,0 0,5 -5,0 z M 180,225 l 5,0 0,5 -5,0 z M 185,225 l 5,0 0,5 -5,0 z M 200,225 l 5,0 0,5 -5,0 z M 205,225 l 5,0 0,5 -5,0 z M 210,225 l 5,0 0,5 -5,0 z M 215,225 l 5,0 0,5 -5,0 z M 220,225 l 5,0 0,5 -5,0 z M 225,225 l 5,0 0,5 -5,0 z M 230,225 l 5,0 0,5 -5,0 z M 5,230 l 5,0 0,5 -5,0 z M 15,230 l 5,0 0,5 -5,0 z M 20,230 l 5,0 0,5 -5,0 z M 25,230 l 5,0 0,5 -5,0 z M 35,230 l 5,0 0,5 -5,0 z M 45,230 l 5,0 0,5 -5,0 z M 55,230 l 5,0 0,5 -5,0 z M 65,230 l 5,0 0,5 -5,0 z M 95,230 l 5,0 0,5 -5,0 z M 100,230 l 5,0 0,5 -5,0 z M 110,230 l 5,0 0,5 -5,0 z M 115,230 l 5,0 0,5 -5,0 z M 130,230 l 5,0 0,5 -5,0 z M 135,230 l 5,0 0,5 -5,0 z M 145,230 l 5,0 0,5 -5,0 z M 155,230 l 5,0 0,5 -5,0 z M 165,230 l 5,0 0,5 -5,0 z M 180,230 l 5,0 0,5 -5,0 z M 185,230 l 5,0 0,5 -5,0 z M 190,230 l 5,0 0,5 -5,0 z M 200,230 l 5,0 0,5 -5,0 z M 215,230 l 5,0 0,5 -5,0 z M 235,230 l 5,0 0,5 -5,0 z M 245,230 l 5,0 0,5 -5,0 z M 5,235 l 5,0 0,5 -5,0 z M 15,235 l 5,0 0,5 -5,0 z M 20,235 l 5,0 0,5 -5,0 z M 25,235 l 5,0 0,5 -5,0 z M 35,235 l 5,0 0,5 -5,0 z M 45,235 l 5,0 0,5 -5,0 z M 50,235 l 5,0 0,5 -5,0 z M 60,235 l 5,0 0,5 -5,0 z M 65,235 l 5,0 0,5 -5,0 z M 70,235 l 5,0 0,5 -5,0 z M 75,235 l 5,0 0,5 -5,0 z M 100,235 l 5,0 0,5 -5,0 z M 125,235 l 5,0 0,5 -5,0 z M 130,235 l 5,0 0,5 -5,0 z M 135,235 l 5,0 0,5 -5,0 z M 140,235 l 5,0 0,5 -5,0 z M 145,235 l 5,0 0,5 -5,0 z M 150,235 l 5,0 0,5 -5,0 z M 160,235 l 5,0 0,5 -5,0 z M 165,235 l 5,0 0,5 -5,0 z M 170,235 l 5,0 0,5 -5,0 z M 175,235 l 5,0 0,5 -5,0 z M 185,235 l 5,0 0,5 -5,0 z M 195,235 l 5,0 0,5 -5,0 z M 220,235 l 5,0 0,5 -5,0 z M 230,235 l 5,0 0,5 -5,0 z M 245,235 l 5,0 0,5 -5,0 z M 5,240 l 5,0 0,5 -5,0 z M 35,240 l 5,0 0,5 -5,0 z M 45,240 l 5,0 0,5 -5,0 z M 50,240 l 5,0 0,5 -5,0 z M 65,240 l 5,0 0,5 -5,0 z M 70,240 l 5,0 0,5 -5,0 z M 85,240 l 5,0 0,5 -5,0 z M 100,240 l 5,0 0,5 -5,0 z M 105,240 l 5,0 0,5 -5,0 z M 115,240 l 5,0 0,5 -5,0 z M 120,240 l 5,0 0,5 -5,0 z M 150,240 l 5,0 0,5 -5,0 z M 155,240 l 5,0 0,5 -5,0 z M 170,240 l 5,0 0,5 -5,0 z M 175,240 l 5,0 0,5 -5,0 z M 205,240 l 5,0 0,5 -5,0 z M 230,240 l 5,0 0,5 -5,0 z M 5,245 l 5,0 0,5 -5,0 z M 10,245 l 5,0 0,5 -5,0 z M 15,245 l 5,0 0,5 -5,0 z M 20,245 l 5,0 0,5 -5,0 z M 25,245 l 5,0 0,5 -5,0 z M 30,245 l 5,0 0,5 -5,0 z M 35,245 l 5,0 0,5 -5,0 z M 45,245 l 5,0 0,5 -5,0 z M 50,245 l 5,0 0,5 -5,0 z M 60,245 l 5,0 0,5 -5,0 z M 65,245 l 5,0 0,5 -5,0 z M 80,245 l 5,0 0,5 -5,0 z M 85,245 l 5,0 0,5 -5,0 z M 90,245 l 5,0 0,5 -5,0 z M 95,245 l 5,0 0,5 -5,0 z M 100,245 l 5,0 0,5 -5,0 z M 110,245 l 5,0 0,5 -5,0 z M 135,245 l 5,0 0,5 -5,0 z M 150,245 l 5,0 0,5 -5,0 z M 155,245 l 5,0 0,5 -5,0 z M 160,245 l 5,0 0,5 -5,0 z M 180,245 l 5,0 0,5 -5,0 z M 185,245 l 5,0 0,5 -5,0 z M 195,245 l 5,0 0,5 -5,0 z M 200,245 l 5,0 0,5 -5,0 z M 215,245 l 5,0 0,5 -5,0 z M 235,245 l 5,0 0,5 -5,0 z M 245,245 l 5,0 0,5 -5,0 z " />
	</g>
</svg>
